<?xml version="1.0" encoding="UTF-8" standalone="no"?>
<!-- Created with Inkscape (http://www.inkscape.org/) -->

<svg
   width="146.63997"
   height="128.67229"
   viewBox="0 0 38.798491 34.044543"
   version="1.1"
   id="svg1"
   xml:space="preserve"
   inkscape:export-filename="arrow_right_sign.png"
   inkscape:export-xdpi="96"
   inkscape:export-ydpi="96"
   xmlns:inkscape="http://www.inkscape.org/namespaces/inkscape"
   xmlns:sodipodi="http://sodipodi.sourceforge.net/DTD/sodipodi-0.dtd"
   xmlns="http://www.w3.org/2000/svg"
   xmlns:svg="http://www.w3.org/2000/svg"><sodipodi:namedview
     id="namedview1"
     pagecolor="#ffffff"
     bordercolor="#000000"
     borderopacity="0.25"
     inkscape:showpageshadow="2"
     inkscape:pageopacity="0.0"
     inkscape:pagecheckerboard="true"
     inkscape:deskcolor="#d1d1d1"
     inkscape:document-units="mm"
     showgrid="false" /><defs
     id="defs1" /><g
     inkscape:groupmode="layer"
     id="layer18"
     inkscape:label="post"
     transform="translate(-3.57029,-3.5644918)"><path
       style="display:inline;fill:#946634;fill-opacity:1;stroke:#000000;stroke-width:1;stroke-linecap:round;stroke-linejoin:round;stroke-miterlimit:40;stroke-dasharray:none;stroke-opacity:1;paint-order:markers fill stroke"
       d="m 14.206314,20.331352 c -0.513359,6.673673 -0.746705,8.120415 -1.9601,11.107233 -1.213395,2.98682 -2.146776,4.480229 -2.146776,4.480229 0,0 0,0.606697 0.793374,0.700034 0.793374,0.09334 3.500178,0.513361 4.760243,0.373354 1.260064,-0.140007 6.020307,-0.420021 6.580335,-0.746705 0.560029,-0.326683 1.726755,-1.353402 1.726755,-1.353402 0,0 -0.04667,-0.793374 -0.04667,-0.980051 0,-0.186676 -3.593517,-3.780192 -3.873531,-4.760243 -0.280014,-0.980048 -0.700036,-4.526897 -0.700036,-4.526897 l -0.373352,-5.320271 -3.546848,-1.633417 z"
       id="path3-6" /><path
       style="display:inline;fill:#946634;fill-opacity:1;stroke:none;stroke-width:1;stroke-linecap:round;stroke-linejoin:round;stroke-miterlimit:40;stroke-dasharray:none;stroke-opacity:1;paint-order:markers fill stroke"
       d="m 14.74329,20.286426 c -0.468419,6.544901 -0.681337,7.963728 -1.788509,10.892914 -1.107172,2.929188 -1.958843,4.393781 -1.958843,4.393781 0,0 0,0.594991 0.72392,0.686527 0.723921,0.09154 3.193765,0.503455 4.343522,0.36615 1.149755,-0.137306 5.493277,-0.411917 6.004278,-0.732297 0.511003,-0.32038 1.575592,-1.327288 1.575592,-1.327288 0,0 -0.04259,-0.778065 -0.04259,-0.96114 0,-0.183074 -3.278933,-3.707252 -3.534434,-4.668392 -0.255501,-0.961138 -0.638753,-4.439549 -0.638753,-4.439549 l -0.340668,-5.217614 -3.23635,-1.6019 z"
       id="path3" /><path
       style="display:inline;fill:#c5925c;fill-opacity:1;stroke:none;stroke-width:0.999994;stroke-linecap:round;stroke-linejoin:round;stroke-miterlimit:40;stroke-dasharray:none;stroke-opacity:1;paint-order:markers fill stroke"
       d="m 14.697536,21.348898 c -0.338783,5.868852 -0.492775,7.141123 -1.293534,9.767742 -0.800759,2.62662 -1.416728,3.93993 -1.416728,3.93993 0,0 0,0.533532 0.523573,0.615612 0.523574,0.08208 2.309882,0.451452 3.14144,0.328329 0.831557,-0.123123 3.972998,-0.369368 4.342578,-0.656655 0.369581,-0.287286 1.139542,-1.190187 1.139542,-1.190187 0,0 -0.0308,-0.697696 -0.0308,-0.86186 0,-0.164164 -2.371479,-3.324315 -2.556269,-4.186175 -0.184791,-0.861859 -0.461977,-3.980971 -0.461977,-3.980971 l -0.246387,-4.678666 -2.340681,-1.436433 z"
       id="path3-0" /><path
       style="fill:#835b2e;fill-opacity:0.538265;stroke:none;stroke-width:1;stroke-linecap:round;stroke-linejoin:round;stroke-miterlimit:40;stroke-dasharray:none;stroke-opacity:1;paint-order:markers fill stroke"
       d="m 13.392327,21.277732 0.151606,3.241779 c 0,0 2.105825,-1.024705 3.698435,-1.496607 0.756465,-0.224143 2.314924,-0.536406 2.314924,-0.536406 l -0.08475,-2.526762 -5.952673,1.289773 z"
       id="path4"
       sodipodi:nodetypes="ccscccc" /><path
       style="display:inline;fill:none;fill-opacity:1;stroke:#000000;stroke-width:1;stroke-linecap:round;stroke-linejoin:round;stroke-miterlimit:40;stroke-dasharray:none;stroke-opacity:1;paint-order:markers fill stroke"
       d="m 14.428641,20.418111 c -0.513359,6.673673 -0.746705,8.120415 -1.9601,11.107233 -1.213395,2.98682 -2.146776,4.480229 -2.146776,4.480229 0,0 0,0.606697 0.793374,0.700034 0.793374,0.09334 3.500178,0.513361 4.760243,0.373354 1.260064,-0.140007 6.020307,-0.420021 6.580335,-0.746705 0.560029,-0.326683 1.726755,-1.353402 1.726755,-1.353402 0,0 -0.04667,-0.793374 -0.04667,-0.980051 0,-0.186676 -3.593517,-3.780192 -3.873531,-4.760243 -0.280014,-0.980048 -0.700036,-4.526897 -0.700036,-4.526897 l -0.373352,-5.320271 -3.546848,-1.633417 z"
       id="path3-6-3" /></g><g
     inkscape:label="Layer 1"
     inkscape:groupmode="layer"
     id="layer1"
     style="display:inline"
     transform="rotate(-7.7806443,-6.6787712,26.136644)"><path
       style="fill:#946634;fill-opacity:1;stroke:#000000;stroke-width:1;stroke-linecap:round;stroke-linejoin:round;stroke-miterlimit:40;stroke-dasharray:none;stroke-opacity:1;paint-order:markers fill stroke"
       d="m 20.049733,4.3302714 c 0,0 2.426791,2.9868189 5.600286,5.4136096 2.025091,1.548599 5.133596,2.986818 7.933737,3.920199 2.800144,0.933381 6.44033,1.866762 6.44033,1.866762 l -6.533667,1.026719 c 0,0 -3.7063,1.033927 -6.440329,2.240115 -3.173495,1.400071 -6.253652,4.760242 -6.253652,4.760242 0,0 -1.213395,1.026719 -2.053438,2.426791 -0.840043,1.400072 -1.400072,2.053439 -1.400072,2.053439 0,0 0.653367,-2.893482 0.560029,-4.666906 -0.09334,-1.773424 -0.280014,-3.546847 -0.280014,-3.546847 0,0 -4.106876,0.09334 -5.41361,0.746704 -1.306733,0.653367 -5.6936236,3.080157 -5.6936236,3.080157 0,0 -0.6455883,0.01222 -1.5867475,-0.46669 -0.7467047,-0.379962 -0.1866762,-2.109896 0.2800142,-5.226933 0.192501,-1.285719 0.3733523,-3.173496 0.3733523,-3.173496 0,0 -0.4016948,-3.623565 -0.6533664,-5.133594 C 4.7422857,8.5304856 3.3422143,5.8236808 3.3422143,5.8236808 c 0,0 0.961703,-0.1903894 1.6800857,-0.4666904 1.2133952,-0.4666904 3.7335236,-0.3733524 7.747062,1.9601 2.418052,1.4058441 3.733524,2.4267906 3.733524,2.4267906 l 1.9601,1.026718 c 0,0 -1.213396,-7.0003561 0,-7.0003561 1.213395,0 1.586747,0.5600285 1.586747,0.5600285 z"
       id="path1"
       sodipodi:nodetypes="cssccscscscscsscscssccsc" /><path
       style="fill:#946634;fill-opacity:1;stroke:none;stroke-width:0.999998;stroke-linecap:round;stroke-linejoin:round;stroke-miterlimit:40;stroke-dasharray:none;stroke-opacity:1;paint-order:markers fill stroke"
       d="m 20.42581,4.744854 c 0,0 2.309465,2.8604534 5.329534,5.184572 1.927186,1.483082 4.885407,2.860454 7.550172,3.754346 2.664768,0.893891 6.128966,1.787783 6.128966,1.787783 l -6.21779,0.983281 c 0,0 -3.527115,0.990184 -6.128965,2.145341 -3.020069,1.340837 -5.951312,4.558847 -5.951312,4.558847 0,0 -1.154732,0.983281 -1.954163,2.324119 -0.79943,1.340838 -1.332384,1.966563 -1.332384,1.966563 0,0 0.62178,-2.771066 0.532954,-4.46946 -0.08883,-1.698395 -0.266476,-3.396788 -0.266476,-3.396788 0,0 -3.908325,0.08939 -5.151884,0.715113 -1.243557,0.625725 -5.4183589,2.949843 -5.4183589,2.949843 0,0 -0.614377,0.01171 -1.510034,-0.446946 -0.710605,-0.363887 -0.177651,-2.020631 0.266476,-5.005794 0.183194,-1.231322 0.355302,-3.039233 0.355302,-3.039233 0,0 -0.382274,-3.470261 -0.621778,-4.916404 -0.177651,-1.0726702 -1.510035,-3.6649563 -1.510035,-3.6649563 0,0 0.915208,-0.1823345 1.59886,-0.4469458 1.154732,-0.4469458 3.5530229,-0.3575568 7.3725219,1.8771726 2.301149,1.3463662 3.553023,2.3241185 3.553023,2.3241185 l 1.865337,0.983281 c 0,0 -1.154733,-6.704188 0,-6.704188 1.154732,0 1.510034,0.536335 1.510034,0.536335 z"
       id="path1-7"
       sodipodi:nodetypes="cssccscscscscsscscssccsc" /><path
       style="fill:#c5925c;fill-opacity:1;stroke:none;stroke-width:0.999993;stroke-linecap:round;stroke-linejoin:round;stroke-miterlimit:40;stroke-dasharray:none;stroke-opacity:1;paint-order:markers fill stroke"
       d="m 20.220723,5.3988397 c 0,0 2.09334,2.688138 4.830782,4.8722493 1.746834,1.393739 4.428216,2.688136 6.843605,3.52818 2.415391,0.840043 5.5554,1.680085 5.5554,1.680085 l -5.635912,0.924048 c 0,0 -3.197037,0.930533 -5.555399,2.016104 -2.737442,1.260063 -5.394371,4.284217 -5.394371,4.284217 0,0 -1.046669,0.924048 -1.771286,2.184112 -0.724618,1.260065 -1.207696,1.848095 -1.207696,1.848095 0,0 0.563592,-2.604134 0.483078,-4.200216 -0.08052,-1.59608 -0.241538,-3.192161 -0.241538,-3.192161 0,0 -3.542573,0.084 -4.669756,0.672033 -1.127181,0.58803 -4.9112932,2.772142 -4.9112932,2.772142 0,0 -0.5568822,0.011 -1.3687201,-0.420021 -0.6441048,-0.341967 -0.161026,-1.898906 0.2415384,-4.70424 0.1660497,-1.157146 0.322051,-2.856147 0.322051,-2.856147 0,0 -0.3464992,-3.261209 -0.5635894,-4.620235 C 7.0165907,9.179033 5.8088946,6.7429082 5.8088946,6.7429082 c 0,0 0.8295598,-0.1713504 1.4492346,-0.4200216 C 8.3047974,5.9028653 10.478649,5.9868703 13.940709,8.0869777 16.02651,9.352237 17.16123,10.271089 17.16123,10.271089 l 1.690773,0.924046 c 0,0 -1.04667,-6.3003207 0,-6.3003207 1.046669,0 1.36872,0.5040254 1.36872,0.5040254 z"
       id="path1-7-7"
       sodipodi:nodetypes="cssccscscscscsscscssccsc" /><path
       style="display:inline;fill:none;fill-opacity:1;stroke:#000000;stroke-width:1;stroke-linecap:round;stroke-linejoin:round;stroke-miterlimit:40;stroke-dasharray:none;stroke-opacity:1;paint-order:markers fill stroke"
       d="m 20.194253,4.3096044 c 0,0 2.426791,2.9868189 5.600286,5.4136096 2.025091,1.548599 5.133596,2.986818 7.933737,3.920199 2.800144,0.933381 6.44033,1.866762 6.44033,1.866762 l -6.533667,1.026719 c 0,0 -3.7063,1.033927 -6.440329,2.240115 -3.173495,1.400071 -6.253652,4.760242 -6.253652,4.760242 0,0 -1.213395,1.026719 -2.053438,2.426791 -0.840043,1.400072 -1.400072,2.053439 -1.400072,2.053439 0,0 0.653367,-2.893482 0.560029,-4.666906 -0.09334,-1.773424 -0.280014,-3.546847 -0.280014,-3.546847 0,0 -4.106876,0.09334 -5.41361,0.746704 -1.306733,0.653367 -5.6936238,3.080157 -5.6936238,3.080157 0,0 -0.645588,0.01222 -1.586747,-0.46669 -0.746705,-0.379962 -0.186676,-2.109896 0.280014,-5.226933 0.192501,-1.285719 0.373352,-3.173496 0.373352,-3.173496 0,0 -0.401694,-3.623565 -0.653366,-5.133594 -0.186676,-1.1200574 -1.586748,-3.8268622 -1.586748,-3.8268622 0,0 0.961703,-0.1903894 1.680086,-0.4666904 1.213395,-0.4666904 3.733524,-0.3733524 7.7470618,1.9601 2.418052,1.4058441 3.733524,2.4267906 3.733524,2.4267906 l 1.9601,1.026718 c 0,0 -1.213396,-7.0003561 0,-7.0003561 1.213395,0 1.586747,0.5600285 1.586747,0.5600285 z"
       id="path1-1"
       sodipodi:nodetypes="cssccscscscscsscscssccsc" /></g><g
     inkscape:groupmode="layer"
     id="layer17"
     inkscape:label="Layer 2"
     transform="translate(-1.6335245,-3.7278335)"><path
       style="fill:#946634;fill-opacity:1;stroke:none;stroke-width:1;stroke-linecap:round;stroke-linejoin:round;stroke-miterlimit:40;stroke-dasharray:none;stroke-opacity:1;paint-order:markers fill stroke"
       d="m 25.068473,10.303909 c 0,0 -0.740947,0.380266 -1.24726,0.475333 -0.506313,0.09507 -1.321355,0.224703 -1.321355,0.224703 0,0 1.580686,-0.190133 2.124048,-0.190133 0.543361,0 1.679479,0.05185 1.679479,0.05185 z"
       id="path2" /><path
       style="fill:#946634;fill-opacity:1;stroke:none;stroke-width:1;stroke-linecap:round;stroke-linejoin:round;stroke-miterlimit:40;stroke-dasharray:none;stroke-opacity:1;paint-order:markers fill stroke"
       d="m 30.50568,11.953528 c 0,0 -1.636448,0.430968 -2.754685,0.538711 -1.118237,0.107746 -2.91833,0.254663 -2.91833,0.254663 0,0 3.491086,-0.215484 4.691149,-0.215484 1.200061,0 3.709279,0.05876 3.709279,0.05876 z"
       id="path2-5" /><path
       style="fill:#946634;fill-opacity:1;stroke:none;stroke-width:0.999998;stroke-linecap:round;stroke-linejoin:round;stroke-miterlimit:40;stroke-dasharray:none;stroke-opacity:1;paint-order:markers fill stroke"
       d="m 7.4446948,19.923617 c 0,0 1.6737432,0.263665 2.7259952,0.150039 1.052254,-0.113622 2.733136,-0.33826 2.733136,-0.33826 0,0 -3.2258747,0.544913 -4.2984907,0.848759 C 7.5327206,20.888 7.756232,20.840745 7.756232,20.840745 Z"
       id="path2-5-6"
       sodipodi:nodetypes="cccscc" /><path
       style="fill:#946634;fill-opacity:1;stroke:none;stroke-width:0.999997;stroke-linecap:round;stroke-linejoin:round;stroke-miterlimit:40;stroke-dasharray:none;stroke-opacity:1;paint-order:markers fill stroke"
       d="m 6.5283884,14.789099 c 0,0 3.6196996,0.263665 5.8953396,0.150039 2.275644,-0.113622 5.910782,-0.33826 5.910782,-0.33826 0,0 -6.976398,0.544913 -9.296078,0.848759 -2.3196752,0.303845 -1.836302,0.25659 -1.836302,0.25659 z"
       id="path2-5-6-4"
       sodipodi:nodetypes="cccscc" /><path
       style="fill:#946634;fill-opacity:1;stroke:none;stroke-width:0.999999;stroke-linecap:round;stroke-linejoin:round;stroke-miterlimit:40;stroke-dasharray:none;stroke-opacity:1;paint-order:markers fill stroke"
       d="m 23.883799,9.579304 c 0,0 -0.32729,0.114079 -0.550937,0.1426 -0.223647,0.02852 -0.583667,0.06741 -0.583667,0.06741 0,0 0.698218,-0.05704 0.93823,-0.05704 0.240013,0 0.741856,0.01555 0.741856,0.01555 z"
       id="path2-5-5" /><path
       style="fill:#946634;fill-opacity:1;stroke:none;stroke-width:0.999997;stroke-linecap:round;stroke-linejoin:round;stroke-miterlimit:40;stroke-dasharray:none;stroke-opacity:1;paint-order:markers fill stroke"
       d="m 6.9315624,17.487545 c 0,0 0.6350759,0.05407 0.6322303,0.09726 -0.00258,0.04319 -0.069598,0.113606 -0.069598,0.113606 0,0 0.291898,-0.138885 0.5654842,-0.189103 C 8.3333541,17.459087 9.042855,17.35212 9.042855,17.35212 Z"
       id="path2-5-5-7" /></g></svg>
