<?xml version="1.0" encoding="UTF-8" standalone="no"?>
<!-- Created with Inkscape (http://www.inkscape.org/) -->

<svg
   width="250"
   height="300"
   viewBox="0 0 66.145832 79.375"
   version="1.1"
   id="svg1"
   inkscape:version="1.3.2 (091e20e, 2023-11-25, custom)"
   sodipodi:docname="blue-bottle.svg"
   xmlns:inkscape="http://www.inkscape.org/namespaces/inkscape"
   xmlns:sodipodi="http://sodipodi.sourceforge.net/DTD/sodipodi-0.dtd"
   xmlns="http://www.w3.org/2000/svg"
   xmlns:svg="http://www.w3.org/2000/svg">
  <sodipodi:namedview
     id="namedview1"
     pagecolor="#ffffff"
     bordercolor="#000000"
     borderopacity="0.25"
     inkscape:showpageshadow="2"
     inkscape:pageopacity="0.0"
     inkscape:pagecheckerboard="true"
     inkscape:deskcolor="#d1d1d1"
     inkscape:document-units="mm"
     inkscape:zoom="2.6834941"
     inkscape:cx="95.584337"
     inkscape:cy="129.49535"
     inkscape:window-width="2400"
     inkscape:window-height="1321"
     inkscape:window-x="2391"
     inkscape:window-y="-9"
     inkscape:window-maximized="1"
     inkscape:current-layer="layer1" />
  <defs
     id="defs1">
    <inkscape:path-effect
       effect="powerstroke"
       id="path-effect14"
       is_visible="true"
       lpeversion="1.3"
       scale_width="1.9033675"
       interpolator_type="CentripetalCatmullRom"
       interpolator_beta="0.2"
       start_linecap_type="zerowidth"
       end_linecap_type="zerowidth"
       offset_points="0.48883562,0.3693348 | 2.0059655,0.83848058 | 3.1507993,0.56760948"
       linejoin_type="round"
       miter_limit="4"
       not_jump="false"
       sort_points="true"
       message="&lt;b&gt;Ctrl + click&lt;/b&gt; on existing node and move it" />
    <inkscape:path-effect
       effect="powerstroke"
       id="path-effect13"
       is_visible="true"
       lpeversion="1.3"
       scale_width="3.0746706"
       interpolator_type="CentripetalCatmullRom"
       interpolator_beta="0.2"
       start_linecap_type="zerowidth"
       end_linecap_type="zerowidth"
       offset_points="0.14082016,0.11024143 | 1.3307701,0.22857944 | 2.0317287,0.17077443"
       linejoin_type="round"
       miter_limit="4"
       not_jump="false"
       sort_points="true"
       message="&lt;b&gt;Ctrl + click&lt;/b&gt; on existing node and move it" />
    <inkscape:path-effect
       effect="bspline"
       id="path-effect1"
       is_visible="true"
       lpeversion="1.3"
       weight="33.333333"
       steps="2"
       helper_size="0"
       apply_no_weight="true"
       apply_with_weight="true"
       only_selected="false"
       uniform="false" />
    <inkscape:path-effect
       effect="bspline"
       id="path-effect1-5"
       is_visible="true"
       lpeversion="1.3"
       weight="33.333333"
       steps="2"
       helper_size="0"
       apply_no_weight="true"
       apply_with_weight="true"
       only_selected="false"
       uniform="false" />
  </defs>
  <g
     inkscape:label="Bottle"
     id="layer1">
    <path
       style="fill:#002aa8;fill-opacity:0.639521;stroke:none;stroke-width:2.11666667;stroke-linejoin:round;stroke-miterlimit:40;stroke-dasharray:none;stroke-opacity:0.72934133;paint-order:markers fill stroke"
       d="m 33.334399,25.188127 c -1.494781,-0.0033 -2.989539,0.02519 -4.483964,0.05529 -1.505814,0.03994 -3.011562,0.100227 -4.512386,0.234611 -1.239104,0.111296 -2.480727,0.224047 -3.704683,0.453719 -0.734666,0.143897 -1.470038,0.300404 -2.166276,0.582911 -0.04466,0.01812 -0.08204,0.02194 -0.122473,0.03152 -0.07582,0.04537 -0.176293,0.07853 -0.303341,0.08992 -0.275058,0.02466 -0.551149,0.03125 -0.825273,0.06563 -0.04966,0.007 -0.09917,0.01419 -0.148828,0.02119 -0.216585,0.03055 -0.373995,-0.01821 -0.466638,-0.101803 -1.005633,6.188947 -2.541124,13.814786 -3.996655,19.357475 -2.054114,7.822099 -3.9275863,11.437484 -3.4674888,14.87196 0.4600976,3.434478 3.2537198,6.687869 7.4605268,8.479069 4.206807,1.791202 9.826669,2.120176 16.038297,2.021582 6.211629,-0.09859 13.014846,-0.6244 17.468185,-2.859257 4.453337,-2.234856 6.556763,-6.178744 5.422924,-12.373921 -1.133837,-6.195179 -5.504894,-14.641675 -7.854817,-22.135083 -0.833426,-2.657619 -1.402654,-5.184654 -1.786971,-7.504969 -0.02428,-0.0085 -0.04859,-0.01685 -0.07286,-0.02532 -0.535829,-0.170441 -1.07582,-0.315737 -1.630908,-0.411344 -0.732827,-0.15396 -1.46816,-0.304717 -2.213302,-0.385507 -0.669825,-0.05219 -1.340363,-0.08505 -2.011247,-0.120406 -0.998408,-0.05119 -1.997627,-0.09078 -2.995682,-0.149345 -1.208299,-0.07106 -2.415559,-0.1787 -3.626136,-0.19792 z"
       id="path12" />
    <path
       style="fill:#ffffff;fill-opacity:0.639521;fill-rule:nonzero;stroke:none;stroke-width:0.716601;stroke-linejoin:round;stroke-miterlimit:40;stroke-dasharray:none;stroke-opacity:1;paint-order:markers fill stroke"
       d="m 32.82148,7.8300281 c 0.147334,0.072774 0.398584,0.2889765 0.884004,0.4366456 0.919743,0.2797941 3.38093,0.652566 5.524327,0.9330414 0.0083,0.018898 0.37152,0.1005558 0.743566,0.1837794 0.25291,0.056574 0.523495,0.112743 0.78951,0.1662696 0.39775,0.080034 0.933395,0.1825991 1.334831,0.2687164 0.206845,0.044373 0.419865,0.092854 0.625096,0.1455422 0.181022,0.046473 0.359066,0.097024 0.518625,0.1505833 0.01178,0.0018 0.0239,0.004 0.03633,0.0064 0.141017,0.02774 0.353573,0.09098 0.555027,0.212915 0.08762,0.05303 0.170039,0.115587 0.238746,0.187562 0.06578,0.06891 0.120996,0.148467 0.156256,0.241198 0.01133,-0.0033 0.02317,0.0086 0.03055,0.03023 0.0076,0.02221 0.01021,0.05267 0.0085,0.08747 -0.0035,0.07357 -0.02544,0.158957 -0.04883,0.234794 -0.02672,0.08665 -0.05441,0.160804 -0.07024,0.213449 -0.02272,0.07558 -0.02094,0.103588 -0.008,0.11502 0.01195,0.01055 0.04303,0.01055 0.113201,-0.03219 0.04923,-0.02999 0.116201,-0.08046 0.190658,-0.151547 0.06323,-0.06037 0.13779,-0.141694 0.19775,-0.233057 0.02887,-0.04399 0.05696,-0.09424 0.07834,-0.14911 0.02095,-0.05376 0.03774,-0.117756 0.03901,-0.188958 -0.002,-0.178479 -0.04271,-0.348525 -0.109654,-0.506413 C 44.580227,10.019832 44.48546,9.8747379 44.383122,9.7490923 44.156027,9.4702757 43.879578,9.2720501 43.703289,9.1609264 43.686928,9.1506132 43.670866,9.1405763 43.655209,9.1308672 43.472212,9.0406404 43.27293,8.9544361 43.085049,8.8780997 42.870155,8.7907884 42.64713,8.7070482 42.437383,8.6322592 41.986664,8.4715469 41.52624,8.3263739 41.080562,8.205664 40.808518,8.1319823 40.532414,8.0648886 40.271711,8.009906 39.879177,7.9271199 39.493833,7.8603862 39.486438,7.876886 a 0.05520765,0.00345422 5.0042353 0 0 -0.05587,-0.00843 C 37.264015,7.6817076 34.7451,7.5155735 33.778453,7.5927001 33.272676,7.633055 32.980976,7.7904734 32.82148,7.8300281 Z"
       id="path13"
       sodipodi:nodetypes="ccsac"
       inkscape:path-effect="#path-effect13"
       inkscape:original-d="m 32.82148,7.8300281 6.536626,0.7077028 c 0,0 2.806243,0.5449532 4.090218,1.0850058 0.440779,0.1853956 0.969924,0.5636553 1.044976,1.1029963 0.03817,0.274277 -0.353457,0.717911 -0.353457,0.717911"
       transform="matrix(1.5841055,-0.10183196,0.07117482,1.3723402,-26.136338,1.4406714)" />
    <path
       style="fill:#ffffff;fill-opacity:0.639521;fill-rule:nonzero;stroke:none;stroke-width:1.05833;stroke-linejoin:round;stroke-miterlimit:40;stroke-dasharray:none;stroke-opacity:1;paint-order:markers fill stroke"
       d="m 13.021133,54.762582 c -0.101317,-0.01565 -0.593447,0.375026 -0.94023,2.402647 -0.0053,0.03122 -0.01066,0.06289 -0.01594,0.09498 -0.09934,0.603098 -0.198666,1.427215 -0.206705,2.273765 -0.0035,0.370858 0.0104,0.763025 0.05509,1.147252 0.042,0.361107 0.114238,0.742574 0.239494,1.104666 0.168977,0.534069 0.414998,1.04166 0.722975,1.522159 0.300054,0.468138 0.650045,0.89678 1.023757,1.287494 0.783113,0.81874 1.684918,1.482956 2.393205,1.944391 0.01177,0.0076 0.02353,0.0152 0.03527,0.02273 0.996221,0.638478 2.059228,1.037782 3.058396,1.307055 1.066419,0.287396 2.141334,0.447072 3.080566,0.569901 0.321035,0.04496 0.682616,0.08249 1.044403,0.113115 0.237344,0.02009 0.491036,0.03609 0.754199,0.048 0.635736,0.02878 1.318672,0.03339 1.933475,0.0145 1.755824,-0.05393 2.220964,-0.258434 2.237523,-0.398953 0.01901,-0.161299 -0.391896,-0.416675 -2.0366,-0.970903 C 25.829417,67.053107 25.18929,66.8483 24.615136,66.65955 24.372657,66.579837 24.153419,66.506918 23.941523,66.43523 23.62058,66.326649 23.324226,66.21722 23.08502,66.112616 c -0.905724,-0.36975 -1.8413,-0.720963 -2.73191,-1.097488 -0.830822,-0.351248 -1.611575,-0.72012 -2.329059,-1.156469 -0.0084,-0.0051 -0.01688,-0.01028 -0.02533,-0.01544 -0.68953,-0.422438 -1.475904,-0.876799 -2.174103,-1.388118 -0.327579,-0.239898 -0.628246,-0.486633 -0.89517,-0.74645 -0.27216,-0.264913 -0.505375,-0.539664 -0.696386,-0.831151 -0.099,-0.148064 -0.193885,-0.357152 -0.278626,-0.612557 -0.08875,-0.267486 -0.161052,-0.568907 -0.220107,-0.88212 -0.133218,-0.706561 -0.199938,-1.482774 -0.242649,-2.054304 -1.29e-4,-0.0017 -0.0066,-0.08893 -0.0067,-0.09066 -0.143285,-1.961438 -0.273553,-2.445877 -0.463853,-2.475278 z"
       id="path14"
       sodipodi:nodetypes="caaac"
       inkscape:path-effect="#path-effect14"
       inkscape:original-d="m 13.021133,54.762582 c 0,0 -0.704771,4.561706 0.171818,6.56911 0.736982,1.687702 2.396469,2.875344 3.952798,3.859882 1.691258,1.069894 3.696062,1.570854 5.630267,2.084543 1.848629,0.490961 5.660595,0.94017 5.660595,0.94017"
       transform="translate(0.97605633,-0.69718309)" />
    <path
       style="fill:none;fill-opacity:0.639521;stroke:#ffffff;stroke-width:2.64583333;stroke-linejoin:round;stroke-miterlimit:40;stroke-dasharray:none;stroke-opacity:0.72934133;paint-order:markers fill stroke"
       d="m 17.429577,26.911268 c 0,0 5.089437,-1.464085 7.669014,-1.533804 2.579577,-0.06972 12.82817,0 15.477464,0.139437 2.649297,0.139437 4.880282,0.906338 4.880282,0.906338"
       id="path1" />
    <path
       style="fill:none;fill-opacity:1;stroke:#000000;stroke-width:2.91041667;stroke-linejoin:round;stroke-miterlimit:40;stroke-dasharray:none;stroke-opacity:1;paint-order:markers fill stroke"
       d="m 14.206124,10.434805 c 0.156111,-1.1667265 1.602194,-2.2512889 3.754914,-3.0400665 2.152721,-0.7887776 5.011965,-1.2817507 8.939445,-1.4296435 3.927481,-0.1478928 8.922941,0.049296 12.53817,0.4601217 3.61523,0.4108253 5.850041,1.0352577 7.148234,1.5939769 1.298192,0.5587193 1.659706,1.0516917 1.922632,1.643278 0.262926,0.5915864 0.42725,1.2817484 0.156103,1.9719314 -0.271148,0.690182 -0.977728,1.380331 -1.684352,2.19377 -0.706624,0.813439 -1.413203,1.750068 -1.63505,4.970954 -0.221847,3.220886 0.04107,8.725752 2.358135,15.701544 2.317064,6.975793 6.688091,15.422063 7.821931,21.617254 1.13384,6.19519 -0.969511,10.138975 -5.422858,12.373836 C 45.650081,70.726622 38.847051,71.25246 32.63541,71.351054 26.42377,71.449647 20.803878,71.120999 16.597063,69.329795 12.390247,67.538591 9.5967334,64.284968 9.1366349,60.850485 8.6765365,57.416001 10.549834,53.800866 12.472487,46.389578 14.39514,38.97829 16.366993,27.771592 17.0161,21.757082 c 0.649106,-6.014511 -0.02461,-6.836117 -0.92843,-7.871401 -0.90382,-1.035285 -2.037658,-2.28415 -1.881546,-3.450876 z"
       id="path1-8"
       transform="translate(0.39614343,-0.25841032)"
       inkscape:label="Outline"
       inkscape:original-d="m 12.916152,10.352641 c 1.446083,-1.0845626 2.892166,-2.1691249 4.338249,-3.2536874 2.859358,-0.4929926 5.718602,-0.9859658 8.577902,-1.4789486 4.995661,0.1971971 9.991121,0.3943863 14.986679,0.5915795 2.234901,0.6244574 4.469712,1.2488899 6.704568,1.8733349 0.36153,0.4929928 0.723043,0.9859658 1.084564,1.4789486 0.16433,0.69019 0.328655,1.380352 0.492983,2.070528 -0.706623,0.690189 -1.413203,1.380338 -2.119827,2.070528 -0.706624,0.936688 -1.413203,1.873317 -2.119826,2.810003 0.262929,5.505086 0.525848,11.009952 0.788772,16.514926 4.371202,8.446611 8.74223,16.892881 13.113345,25.339322 -2.103435,3.94394 -4.206788,7.887724 -6.31018,11.831588 -6.8033,0.525859 -13.60633,1.051697 -20.409493,1.577546 -5.620118,-0.328663 -11.24001,-0.65731 -16.860015,-0.985965 -2.793626,-3.253753 -5.5871393,-6.507376 -8.380709,-9.761063 1.8733724,-3.61528 3.74667,-7.230415 5.620005,-10.845623 1.971971,-11.207368 3.943824,-22.414066 5.915794,-33.621433 -0.673757,-0.821654 -1.347473,-1.64326 -2.02123,-2.464914 -1.133883,-1.248915 -2.267721,-2.49778 -3.401581,-3.74667 z"
       inkscape:path-effect="#path-effect1-5"
       sodipodi:nodetypes="ccccccccccccccccccc" />
  </g>
</svg>
