<?xml version="1.0" encoding="UTF-8" standalone="no"?>
<!-- Created with Inkscape (http://www.inkscape.org/) -->

<svg
   width="250"
   height="300"
   viewBox="0 0 66.145832 79.375"
   version="1.1"
   id="svg1"
   inkscape:version="1.3.2 (091e20e, 2023-11-25, custom)"
   sodipodi:docname="pink-bottle.svg"
   inkscape:export-filename="green-bottle.png"
   inkscape:export-xdpi="96"
   inkscape:export-ydpi="96"
   xmlns:inkscape="http://www.inkscape.org/namespaces/inkscape"
   xmlns:sodipodi="http://sodipodi.sourceforge.net/DTD/sodipodi-0.dtd"
   xmlns="http://www.w3.org/2000/svg"
   xmlns:svg="http://www.w3.org/2000/svg">
  <sodipodi:namedview
     id="namedview1"
     pagecolor="#ffffff"
     bordercolor="#000000"
     borderopacity="0.25"
     inkscape:showpageshadow="2"
     inkscape:pageopacity="0.0"
     inkscape:pagecheckerboard="true"
     inkscape:deskcolor="#d1d1d1"
     inkscape:document-units="mm"
     inkscape:zoom="3.7950337"
     inkscape:cx="161.92215"
     inkscape:cy="134.51791"
     inkscape:window-width="2400"
     inkscape:window-height="1321"
     inkscape:window-x="2391"
     inkscape:window-y="-9"
     inkscape:window-maximized="1"
     inkscape:current-layer="layer1" />
  <defs
     id="defs1">
    <inkscape:path-effect
       effect="powerstroke"
       id="path-effect14"
       is_visible="true"
       lpeversion="1.3"
       scale_width="1.9033675"
       interpolator_type="CentripetalCatmullRom"
       interpolator_beta="0.2"
       start_linecap_type="zerowidth"
       end_linecap_type="zerowidth"
       offset_points="0.48883562,0.3693348 | 2.0059655,0.83848058 | 3.1507993,0.56760948"
       linejoin_type="round"
       miter_limit="4"
       not_jump="false"
       sort_points="true"
       message="&lt;b&gt;Ctrl + click&lt;/b&gt; on existing node and move it" />
    <inkscape:path-effect
       effect="powerstroke"
       id="path-effect13"
       is_visible="true"
       lpeversion="1.3"
       scale_width="3.0746706"
       interpolator_type="CentripetalCatmullRom"
       interpolator_beta="0.2"
       start_linecap_type="zerowidth"
       end_linecap_type="zerowidth"
       offset_points="0.19954092,0.056537136 | 1.3307701,0.22857944 | 2.0317287,0.17077443"
       linejoin_type="round"
       miter_limit="4"
       not_jump="false"
       sort_points="true"
       message="&lt;b&gt;Ctrl + click&lt;/b&gt; on existing node and move it" />
    <inkscape:path-effect
       effect="bspline"
       id="path-effect1"
       is_visible="true"
       lpeversion="1.3"
       weight="33.333333"
       steps="2"
       helper_size="0"
       apply_no_weight="true"
       apply_with_weight="true"
       only_selected="false"
       uniform="false" />
    <inkscape:path-effect
       effect="bspline"
       id="path-effect1-5"
       is_visible="true"
       lpeversion="1.3"
       weight="33.333333"
       steps="2"
       helper_size="0"
       apply_no_weight="true"
       apply_with_weight="true"
       only_selected="false"
       uniform="false" />
  </defs>
  <g
     inkscape:label="Bottle"
     id="layer1">
    <path
       style="fill:#35d95e;fill-opacity:0.71616769;stroke:none;stroke-width:2.11667;stroke-linejoin:round;stroke-miterlimit:40;stroke-dasharray:none;stroke-opacity:0.729341;paint-order:markers fill stroke"
       d="m 33.334399,25.188127 c -1.494781,-0.0033 -2.989539,0.02519 -4.483964,0.05529 -1.505814,0.03994 -3.011562,0.100227 -4.512386,0.234611 0,0 1.352215,0.359617 0.128259,0.589289 -0.734666,0.143897 0.662113,0.263431 -0.03413,0.545938 -0.04466,0.01812 -0.04507,0.08356 -0.0855,0.09314 -0.07582,0.04537 0.255067,0.0046 0.128019,0.01597 -0.275058,0.02466 -0.193737,0.400987 -0.467861,0.435367 -0.04966,0.007 0.0364,0.248357 -0.01326,0.255357 -0.216585,0.03055 -0.300048,1.164949 -0.392691,1.081356 -1.005633,6.188947 -7.865339,12.631627 -9.32087,18.174316 -2.054114,7.822099 -2.884714,10.25928 -2.424617,13.693756 0.460098,3.434478 2.4171,6.966742 4.741513,8.967097 3.465623,2.982463 9.826669,2.120176 16.038297,2.021582 6.211629,-0.09859 13.014846,-0.6244 17.468185,-2.859257 4.453337,-2.234856 6.556763,-6.178744 5.422924,-12.373921 -1.133837,-6.195179 -6.879652,-14.445592 -9.229575,-21.939 -0.833426,-2.657619 -2.755625,-4.836063 -3.139942,-7.156378 -0.02428,-0.0085 -0.0268,-0.191145 -0.05107,-0.199615 -0.535829,-0.170441 -1.609601,0.242009 -1.066625,-0.393915 -0.732827,-0.15396 -0.701259,-0.496442 -1.446401,-0.577232 -0.669825,-0.05219 -1.340363,-0.08505 -2.011247,-0.120406 -0.998408,-0.05119 -0.622869,-0.286863 -1.620924,-0.345428 -1.208299,-0.07106 -2.415559,-0.1787 -3.626136,-0.19792 z"
       id="path12"
       sodipodi:nodetypes="scccscscccsssssssccccccss" />
    <path
       style="fill:#ffffff;fill-opacity:0.639521;fill-rule:nonzero;stroke:none;stroke-width:0.716601;stroke-linejoin:round;stroke-miterlimit:40;stroke-dasharray:none;stroke-opacity:1;paint-order:markers fill stroke"
       d="m 32.82148,7.8300281 c 0.214269,0.05234 0.676446,0.1847991 1.285613,0.3140388 1.006153,0.2134634 3.132882,0.6449423 5.062868,0.9775664 0.0054,0.036528 0.195308,0.127311 0.41177,0.2195807 0.08378,0.035713 0.173692,0.072501 0.260512,0.1068409 0.2085,0.082468 0.418864,0.1604315 0.58922,0.2221375 0.130155,0.047145 0.27812,0.099623 0.356535,0.1265516 0.04384,0.015054 0.08464,0.028665 0.105334,0.033068 0.02316,0.00493 0.02839,0.00241 0.0077,-0.028099 -0.0065,-0.00957 -0.03453,-0.048214 -0.05748,-0.091261 -0.01281,-0.024025 -0.02846,-0.057082 -0.04166,-0.097873 -0.01327,-0.041002 -0.02499,-0.092367 -0.02763,-0.1527722 -0.0027,-0.060721 0.0042,-0.12637 0.02491,-0.192748 0.0204,-0.0654 0.05132,-0.1221779 0.08739,-0.1692003 0.03489,-0.0455 0.07209,-0.078692 0.104618,-0.1021651 0.03184,-0.022976 0.06088,-0.037887 0.08341,-0.047392 0.04337,-0.018297 0.07247,-0.021094 0.08349,-0.020514 0.01245,6.557e-4 0.01217,0.00501 0.0041,0.00926 -0.01599,0.00837 -0.06251,0.017686 -0.135088,0.022543 -0.04783,0.00211 -0.09587,0.00465 -0.144034,0.00764 -0.282855,0.017515 -0.585564,0.05589 -0.867103,0.125654 -0.136761,0.033888 -0.268953,0.075343 -0.389175,0.1253638 -0.110572,0.046006 -0.219608,0.1028105 -0.313138,0.1733335 -0.04547,0.034284 -0.09197,0.07534 -0.133577,0.1239602 -0.04063,0.047476 -0.08177,0.1082418 -0.109061,0.1821661 -0.02784,0.075403 -0.03956,0.1604502 -0.02477,0.248307 0.01444,0.085756 0.05118,0.1568747 0.0952,0.2125387 0.04267,0.05395 0.09303,0.09474 0.141902,0.126137 0.04893,0.03144 0.102199,0.05719 0.156597,0.07893 0.107203,0.04285 0.237291,0.07738 0.383668,0.105991 0.09797,0.01516 0.240288,0.04356 0.410645,0.08058 0.173169,0.03763 0.376185,0.08434 0.593575,0.135658 0.445722,0.105217 0.989504,0.238848 1.441456,0.349294 1.416929,0.346264 1.86085,0.441685 1.870609,0.40851 l 0,0 c 0.0094,-0.03202 -0.414615,-0.195007 -1.795459,-0.665826 -0.846078,-0.288483 -0.558908,-0.18987 -1.404986,-0.478352 -0.211644,-0.07263 -0.408754,-0.140945 -0.576625,-0.200497 -0.166013,-0.05889 -0.301524,-0.1085357 -0.397967,-0.1465432 -0.119246,-0.044232 -0.201824,-0.087892 -0.249524,-0.1252504 -0.02338,-0.018309 -0.03649,-0.033835 -0.03918,-0.043201 -0.0024,-0.00851 0.0056,-0.011892 0.02199,0.00214 0.01628,0.013972 0.03724,0.043742 0.04762,0.088533 0.01076,0.046436 0.0061,0.090694 -0.0035,0.1261459 -0.0092,0.03404 -0.01998,0.05348 -0.02253,0.0637 -0.0026,0.01022 0.0022,0.01223 0.01472,0.01105 0.02562,-0.0024 0.08159,-0.01652 0.154706,-0.0284 0.08035,-0.01306 0.174154,-0.02421 0.283518,-0.0319 0.225813,-0.015868 0.471136,-0.01373 0.714368,0.0021 0.04068,0.0026 0.08129,0.0058 0.121776,0.0094 0.100569,0.0076 0.194211,0.01165 0.276235,0.0088 0.044,-0.0015 0.09132,-0.0052 0.139471,-0.01343 0.0483,-0.0082 0.110025,-0.022974 0.175685,-0.052767 0.0345,-0.015654 0.07382,-0.037137 0.114145,-0.066879 0.04118,-0.030373 0.08534,-0.070796 0.125568,-0.123773 0.04149,-0.054628 0.07621,-0.119289 0.09888,-0.1928366 0.02301,-0.074645 0.03064,-0.1488282 0.0273,-0.2183228 C 41.9627,9.2982637 41.948819,9.2377497 41.932023,9.1873733 41.915235,9.1370199 41.89464,9.0943524 41.875553,9.06032 41.838033,8.9934221 41.795499,8.9408259 41.764508,8.9057902 41.701226,8.8342492 41.63207,8.7755921 41.578776,8.7340575 41.519853,8.6881364 41.457283,8.6453029 41.393728,8.6055334 41.268342,8.5270725 41.123591,8.4508579 40.965357,8.3782416 40.772003,8.2895077 40.551247,8.2029518 40.32123,8.12657 40.226146,8.0949955 40.129077,8.0653604 40.035972,8.039396 39.785022,7.9694124 39.559954,7.9257458 39.545665,7.9588717 a 0.11681571,0.01827319 3.1754984 0 0 -0.122063,-0.026092 c -1.988117,-0.092396 -4.228725,-0.1273881 -5.279087,-0.1343587 -0.622712,-0.00413 -1.102529,0.02634 -1.323035,0.031607 z"
       id="path13"
       sodipodi:nodetypes="ccssc"
       inkscape:path-effect="#path-effect13"
       inkscape:original-d="m 32.82148,7.8300281 6.536626,0.7077028 c 0,0 3.020882,0.9788087 1.659786,0.9554626 -1.417034,-0.024306 -2.192153,0.4260151 -1.12371,0.7178205 0.772791,0.211059 4.245661,1.23263 4.245661,1.23263"
       transform="matrix(1.5841055,-0.10183196,0.07117482,1.3723402,-26.136338,1.4406714)" />
    <path
       style="fill:#ffffff;fill-opacity:0.639521;fill-rule:nonzero;stroke:none;stroke-width:1.05833;stroke-linejoin:round;stroke-miterlimit:40;stroke-dasharray:none;stroke-opacity:1;paint-order:markers fill stroke"
       d="m 13.021133,54.762582 c -0.101317,-0.01565 -0.593447,0.375026 -0.94023,2.402647 -0.0053,0.03122 -0.01066,0.06289 -0.01594,0.09498 -0.09934,0.603098 -0.198666,1.427215 -0.206705,2.273765 -0.0035,0.370858 0.0104,0.763025 0.05509,1.147252 0.042,0.361107 0.114238,0.742574 0.239494,1.104666 0.168977,0.534069 0.414998,1.04166 0.722975,1.522159 0.300054,0.468138 0.650045,0.89678 1.023757,1.287494 0.783113,0.81874 1.684918,1.482956 2.393205,1.944391 0.01177,0.0076 0.02353,0.0152 0.03527,0.02273 0.996221,0.638478 2.059228,1.037782 3.058396,1.307055 1.066419,0.287396 2.141334,0.447072 3.080566,0.569901 0.321035,0.04496 0.682616,0.08249 1.044403,0.113115 0.237344,0.02009 0.491036,0.03609 0.754199,0.048 0.635736,0.02878 1.318672,0.03339 1.933475,0.0145 1.755824,-0.05393 2.220964,-0.258434 2.237523,-0.398953 0.01901,-0.161299 -0.391896,-0.416675 -2.0366,-0.970903 C 25.829417,67.053107 25.18929,66.8483 24.615136,66.65955 24.372657,66.579837 24.153419,66.506918 23.941523,66.43523 23.62058,66.326649 23.324226,66.21722 23.08502,66.112616 c -0.905724,-0.36975 -1.8413,-0.720963 -2.73191,-1.097488 -0.830822,-0.351248 -1.611575,-0.72012 -2.329059,-1.156469 -0.0084,-0.0051 -0.01688,-0.01028 -0.02533,-0.01544 -0.68953,-0.422438 -1.475904,-0.876799 -2.174103,-1.388118 -0.327579,-0.239898 -0.628246,-0.486633 -0.89517,-0.74645 -0.27216,-0.264913 -0.505375,-0.539664 -0.696386,-0.831151 -0.099,-0.148064 -0.193885,-0.357152 -0.278626,-0.612557 -0.08875,-0.267486 -0.161052,-0.568907 -0.220107,-0.88212 -0.133218,-0.706561 -0.199938,-1.482774 -0.242649,-2.054304 -1.29e-4,-0.0017 -0.0066,-0.08893 -0.0067,-0.09066 -0.143285,-1.961438 -0.273553,-2.445877 -0.463853,-2.475278 z"
       id="path14"
       sodipodi:nodetypes="caaac"
       inkscape:path-effect="#path-effect14"
       inkscape:original-d="m 13.021133,54.762582 c 0,0 -0.704771,4.561706 0.171818,6.56911 0.736982,1.687702 2.396469,2.875344 3.952798,3.859882 1.691258,1.069894 3.696062,1.570854 5.630267,2.084543 1.848629,0.490961 5.660595,0.94017 5.660595,0.94017"
       transform="translate(3.9042253,-0.55774647)" />
    <path
       style="fill:none;fill-opacity:1;stroke:#000000;stroke-width:2.91042;stroke-linejoin:round;stroke-miterlimit:40;stroke-dasharray:none;stroke-opacity:1;paint-order:markers fill stroke"
       d="m 22.640478,10.792822 c 0.154701,-1.2977043 0.3094,-2.5953832 1.2016,-3.4459167 0.892199,-0.8505335 2.521797,-1.2538455 5.474257,-1.3685351 2.952459,-0.1146896 7.227511,0.059261 9.677308,0.3598677 2.449797,0.300607 3.074216,0.7278409 3.411337,1.3335304 0.337121,0.6056896 0.386902,1.3897583 0.32117,2.0306494 -0.06573,0.6408913 -0.246969,1.1385273 -0.658038,1.7653203 -0.411069,0.626794 -1.051922,1.38267 -2.514468,2.261842 -1.462546,0.879171 -3.746607,1.881529 -2.867436,5.118848 0.87917,3.237319 4.92155,8.709321 9.12838,15.66868 4.206831,6.95936 8.577858,15.40563 9.711698,21.600821 1.13384,6.19519 -0.969511,10.138975 -5.422858,12.373836 -4.453347,2.234861 -11.256377,2.760699 -17.468018,2.859293 -6.21164,0.09859 -11.831532,-0.230055 -15.39925,-1.986399 -3.567718,-1.756344 -5.083058,-4.940186 -5.543185,-8.374702 -0.460126,-3.434517 0.135028,-7.119369 3.743637,-14.566684 3.608609,-7.447315 10.230264,-18.656348 12.266416,-24.682479 2.036151,-6.026131 -0.513443,-6.868638 -2.063451,-7.596991 -1.550008,-0.728354 -2.100253,-1.342476 -2.433479,-1.881938 -0.333226,-0.539462 -0.449423,-1.004252 -0.56562,-1.469043 z"
       id="path1-8"
       transform="translate(0.39614343,-0.25841032)"
       inkscape:label="Outline"
       inkscape:original-d="m 22.640478,10.792822 c 0,0 0.3094,-2.5953832 0.464104,-3.8931139 1.629695,-0.4033363 3.259293,-0.8066483 4.888989,-1.2099848 4.275223,0.1739573 8.550275,0.3479075 12.825411,0.5218612 0.624458,0.4272604 1.248877,0.8544944 1.873336,1.2817554 0.04978,0.7841182 0.09956,1.5681869 0.149347,2.3523039 -0.181247,0.4976652 -0.362484,0.9953012 -0.543732,1.4929662 -0.64089,0.755922 -1.281742,1.511799 -1.922634,2.267721 -2.284201,1.00242 -4.568262,2.004778 -6.852461,3.007197 4.04254,5.472219 8.08492,10.944221 12.127378,16.416329 4.371202,8.446611 8.74223,16.892881 13.113345,25.339322 -2.103435,3.94394 -4.206788,7.887724 -6.31018,11.831588 -6.8033,0.525859 -13.60633,1.051697 -20.409493,1.577546 -5.620118,-0.328663 -11.24001,-0.65731 -16.860015,-0.985965 -1.515431,-3.184033 -3.030771,-6.367875 -4.546202,-9.551908 0.595178,-3.685 1.190332,-7.369852 1.785498,-11.054778 6.622052,-11.209704 13.243707,-22.418737 19.865759,-33.62844 -2.549749,-0.842559 -5.099343,-1.685066 -7.649093,-2.527625 -0.550266,-0.614148 -1.100511,-1.22827 -1.650766,-1.842404 -0.116197,-0.46479 -0.348591,-1.394371 -0.348591,-1.394371 z"
       inkscape:path-effect="#path-effect1-5"
       sodipodi:nodetypes="cccccccccccccccccccc" />
  </g>
</svg>
