<?xml version="1.0" encoding="UTF-8" standalone="no"?>
<!-- Created with Inkscape (http://www.inkscape.org/) -->

<svg
   width="279.86942"
   height="359.46994"
   viewBox="0 0 74.04878 95.109749"
   version="1.1"
   id="svg1"
   inkscape:version="1.3.2 (091e20e, 2023-11-25, custom)"
   sodipodi:docname="bumble.svg"
   xml:space="preserve"
   inkscape:export-filename="assets\right_arm.svg"
   inkscape:export-xdpi="96"
   inkscape:export-ydpi="96"
   xmlns:inkscape="http://www.inkscape.org/namespaces/inkscape"
   xmlns:sodipodi="http://sodipodi.sourceforge.net/DTD/sodipodi-0.dtd"
   xmlns="http://www.w3.org/2000/svg"
   xmlns:svg="http://www.w3.org/2000/svg"><sodipodi:namedview
     id="namedview1"
     pagecolor="#ffffff"
     bordercolor="#000000"
     borderopacity="0.25"
     inkscape:showpageshadow="2"
     inkscape:pageopacity="0.0"
     inkscape:pagecheckerboard="true"
     inkscape:deskcolor="#d1d1d1"
     inkscape:document-units="mm"
     inkscape:zoom="1.9723485"
     inkscape:cx="132.58306"
     inkscape:cy="198.74784"
     inkscape:window-width="2245"
     inkscape:window-height="1122"
     inkscape:window-x="2474"
     inkscape:window-y="54"
     inkscape:window-maximized="0"
     inkscape:current-layer="g1" /><defs
     id="defs1"><inkscape:path-effect
       effect="powerstroke"
       id="path-effect19"
       is_visible="true"
       lpeversion="1.3"
       scale_width="7.5675676"
       interpolator_type="CentripetalCatmullRom"
       interpolator_beta="0.47027027"
       start_linecap_type="zerowidth"
       end_linecap_type="round"
       offset_points="0.19443042,0.041176393 | 0.99510973,0.083052756 | 2,0.18527201"
       linejoin_type="round"
       miter_limit="4"
       not_jump="false"
       sort_points="true"
       message="&lt;b&gt;Ctrl + click&lt;/b&gt; on existing node and move it" /><inkscape:path-effect
       effect="spiro"
       id="path-effect18"
       is_visible="true"
       lpeversion="1" /><inkscape:path-effect
       effect="spiro"
       id="path-effect16"
       is_visible="true"
       lpeversion="1" /><inkscape:path-effect
       effect="powerstroke"
       id="path-effect14"
       is_visible="true"
       lpeversion="1.3"
       scale_width="1"
       interpolator_type="CentripetalCatmullRom"
       interpolator_beta="0.2"
       start_linecap_type="zerowidth"
       end_linecap_type="zerowidth"
       offset_points="0.2,0.25 | 1,0.25 | 1.7835918,0.083674376"
       linejoin_type="round"
       miter_limit="4"
       not_jump="false"
       sort_points="true"
       message="&lt;b&gt;Ctrl + click&lt;/b&gt; on existing node and move it" /><inkscape:path-effect
       effect="spiro"
       id="path-effect13"
       is_visible="true"
       lpeversion="1" /><inkscape:path-effect
       effect="powerstroke"
       id="path-effect11"
       is_visible="true"
       lpeversion="1.3"
       scale_width="1.8918919"
       interpolator_type="CentripetalCatmullRom"
       interpolator_beta="0.2"
       start_linecap_type="zerowidth"
       end_linecap_type="zerowidth"
       offset_points="0.053828503,0.013012078 | 2.5402252,0.45452242 | 4.8731142,0.14265815"
       linejoin_type="round"
       miter_limit="4"
       not_jump="false"
       sort_points="true"
       message="&lt;b&gt;Ctrl + click&lt;/b&gt; on existing node and move it" /><inkscape:path-effect
       effect="powerstroke"
       id="path-effect10"
       is_visible="true"
       lpeversion="1.3"
       scale_width="1"
       interpolator_type="CentripetalCatmullRom"
       interpolator_beta="0.2"
       start_linecap_type="butt"
       end_linecap_type="zerowidth"
       offset_points="0.2,0.5 | 1,0.5 | 1.9299127,0.14340841"
       linejoin_type="round"
       miter_limit="4"
       not_jump="false"
       sort_points="true"
       message="&lt;b&gt;Ctrl + click&lt;/b&gt; on existing node and move it" /><inkscape:path-effect
       effect="spiro"
       id="path-effect9"
       is_visible="true"
       lpeversion="1" /><inkscape:path-effect
       effect="powerstroke"
       id="path-effect5"
       is_visible="true"
       lpeversion="1.3"
       scale_width="1"
       interpolator_type="CentripetalCatmullRom"
       interpolator_beta="0.2"
       start_linecap_type="round"
       end_linecap_type="zerowidth"
       offset_points="0.20994396,0.30794108 | 0.99531442,0.31990529 | 2,0.096084786"
       linejoin_type="round"
       miter_limit="4"
       not_jump="false"
       sort_points="true"
       message="&lt;b&gt;Ctrl + click&lt;/b&gt; on existing node and move it" /><inkscape:path-effect
       effect="spiro"
       id="path-effect4"
       is_visible="true"
       lpeversion="1" /><inkscape:path-effect
       effect="powerstroke"
       id="path-effect7"
       is_visible="true"
       lpeversion="1.3"
       scale_width="0.69686411"
       interpolator_type="CentripetalCatmullRom"
       interpolator_beta="0.2"
       start_linecap_type="zerowidth"
       end_linecap_type="zerowidth"
       offset_points="0.5487815,0.25354025 | 5,0.5 | 8.8573217,0.15081009"
       linejoin_type="round"
       miter_limit="4"
       not_jump="false"
       sort_points="true"
       message="&lt;b&gt;Ctrl + click&lt;/b&gt; on existing node and move it" /><inkscape:path-effect
       effect="spiro"
       id="path-effect6"
       is_visible="true"
       lpeversion="1" /><inkscape:path-effect
       effect="fill_between_many"
       method="bsplinespiro"
       autoreverse="false"
       close="false"
       join="false"
       linkedpaths="#path6,0,1"
       id="path-effect8"
       is_visible="true"
       lpeversion="0" /><inkscape:path-effect
       effect="fill_between_many"
       method="bsplinespiro"
       autoreverse="false"
       close="false"
       join="false"
       linkedpaths="#path13,0,1"
       id="path-effect15"
       is_visible="true"
       lpeversion="0" /><inkscape:path-effect
       effect="spiro"
       id="path-effect16-7"
       is_visible="true"
       lpeversion="1" /><inkscape:path-effect
       effect="spiro"
       id="path-effect16-7-3"
       is_visible="true"
       lpeversion="1" /><inkscape:path-effect
       effect="spiro"
       id="path-effect18-4"
       is_visible="true"
       lpeversion="1" /><inkscape:path-effect
       effect="powerstroke"
       id="path-effect19-9"
       is_visible="true"
       lpeversion="1.3"
       scale_width="7.027027"
       interpolator_type="CentripetalCatmullRom"
       interpolator_beta="0.47027027"
       start_linecap_type="zerowidth"
       end_linecap_type="round"
       offset_points="0.19443042,0.041176393 | 0.99510973,0.083052756 | 2,0.18527201"
       linejoin_type="round"
       miter_limit="4"
       not_jump="false"
       sort_points="true"
       message="&lt;b&gt;Ctrl + click&lt;/b&gt; on existing node and move it" /></defs><g
     id="g1"
     inkscape:label="Bumble"
     transform="translate(-0.13414634,-0.13414634)"><g
       id="layer2"
       inkscape:label="Head"
       transform="matrix(0.91068001,-0.18654945,0.18370194,0.94974568,20.482947,20.226107)"
       inkscape:transform-center-x="-9.4276332"
       inkscape:transform-center-y="-14.521286"
       style="stroke-width:1.05457"><path
         style="fill:#fcda06;fill-opacity:1;stroke:none;stroke-width:0.0527284;stroke-linecap:round;stroke-linejoin:round;stroke-miterlimit:40;stroke-dasharray:none;stroke-opacity:1;paint-order:markers fill stroke"
         d="m 24.052778,7.5983985 c 0,0 -1.268042,-2.257831 -0.870786,-3.274841 0.486402,-1.245235 1.937088,-0.937736 2.903448,-0.693797 1.29949,0.328032 2.468313,1.529549 3.464515,2.793094 0.847187,1.07454 1.484652,2.492004 2.024497,3.9294555 0.201858,0.537485 0.441709,1.7225 0.441709,1.7225 0,0 -0.903831,-1.899981 -1.452267,-2.7272285 -0.651739,-0.98307 -1.306765,-1.990453 -2.161718,-2.622935 -0.695173,-0.514278 -1.468684,-0.922985 -2.254046,-1.105695 -0.396415,-0.09222 -0.809469,-0.08231 -1.205516,0.01296 -0.178285,0.0429 -0.349668,0.139082 -0.512946,0.248117 -0.220496,0.147244 -0.534794,0.22329 -0.621925,0.542824 -0.103986,0.381347 0.245033,1.175544 0.245033,1.175544 z"
         id="path3-3-6"
         sodipodi:nodetypes="caaaacasaaaacc" /><path
         style="fill:#000000;fill-opacity:1;stroke:#000000;stroke-width:0.0527284;stroke-linecap:round;stroke-linejoin:round;stroke-miterlimit:40;stroke-dasharray:none;stroke-opacity:1;paint-order:markers fill stroke"
         d="m 23.594425,6.3666955 c 0,0 -1.285753,-2.074708 -0.870786,-2.989059 0.518092,-1.141581 1.998657,-0.68784 2.981532,-0.442177 1.251458,0.312794 2.415087,1.259592 3.386431,2.358277 0.855564,0.967727 1.484652,2.274535 2.024497,3.586546 0.201858,0.490582 0.441709,1.5721845 0.441709,1.5721845 0,0 -0.816902,-1.9804425 -1.361169,-2.8366405 -0.61988,-0.975147 -1.280737,-1.990457 -2.13569,-2.567744 -0.695172,-0.4694 -1.43167,-0.913148 -2.195528,-1.173178 -0.614869,-0.209312 -1.264344,-0.439892 -1.890275,-0.300745 -0.208544,0.04636 -0.454225,0.132421 -0.571465,0.367246 -0.187549,0.375656 -0.09517,0.904217 -0.05429,1.352331 0.03387,0.371158 0.245034,1.072959 0.245033,1.072959 z"
         id="path3-5"
         sodipodi:nodetypes="caaaacasaaaac" /><path
         style="fill:#fcda06;fill-opacity:1;stroke:#000000;stroke-width:1.05457;stroke-linecap:round;stroke-linejoin:round;stroke-miterlimit:40;stroke-opacity:1;paint-order:markers fill stroke"
         d="m 3.8890872,8.5370209 c -0.2594485,2.0034371 1.0014151,4.0517451 2.2813055,5.6147401 1.5612252,1.90656 3.8595943,3.210114 6.1656263,4.078799 3.734358,1.406737 11.860923,1.624057 11.860923,1.624057 0,0 3.600386,1.358413 5.492919,1.487935 2.226312,0.152366 5.242059,0.885755 6.639904,-0.853702 1.113559,-1.385695 0.205576,-3.669377 -0.474279,-5.311924 C 34.421812,11.713133 31.72526,8.6837872 28.646448,6.5450492 26.305733,4.9190401 23.402263,4.1219722 20.583706,3.6993758 17.579269,3.2489098 14.443882,3.4227217 11.47755,4.0787989 9.3046,4.5594002 7.0693454,5.2745624 5.3119242,6.6399049 4.6877038,7.1248624 3.990606,7.753102 3.8890872,8.5370209 Z"
         id="path1"
         sodipodi:nodetypes="aaacaaaaaaaa" /><path
         style="fill:#fcda06;fill-opacity:1;stroke:none;stroke-width:0.0527284;stroke-linecap:round;stroke-linejoin:round;stroke-miterlimit:40;stroke-dasharray:none;stroke-opacity:1;paint-order:markers fill stroke"
         d="m 13.611105,6.5071957 c 0,0 -2.011956,-2.5587219 -1.381644,-3.7112657 0.771757,-1.4111809 3.073507,-1.0627027 4.606795,-0.7862548 2.061853,0.3717468 3.916383,1.7333845 5.497021,3.1653167 1.344201,1.2177397 2.355643,2.8241029 3.212196,4.4531166 0.32028,0.6091145 0.700843,1.9520515 0.700843,1.9520515 0,0 -1.434075,-2.1531845 -2.304259,-3.0906755 C 22.907967,7.3754064 21.868661,6.2337733 20.512138,5.5170034 19.409132,4.9341889 18.181829,4.4710152 16.935724,4.2639569 c -0.628977,-0.1045136 -1.284355,-0.093285 -1.912747,0.014689 -0.28288,0.048606 -0.554807,0.1576173 -0.813874,0.2811824 -0.349853,0.1668669 -0.848538,0.2530466 -0.986786,0.6151641 -0.164991,0.4321679 0.388786,1.3322038 0.388786,1.3322038 z"
         id="path3-3"
         sodipodi:nodetypes="caaaacasaaaacc" /><path
         style="display:inline;fill:#000000;fill-opacity:1;stroke:#000000;stroke-width:0.0527284;stroke-linecap:round;stroke-linejoin:round;stroke-miterlimit:40;stroke-dasharray:none;stroke-opacity:1;paint-order:markers fill stroke"
         d="m 13.165705,5.4296046 c 0,0 -2.040058,-2.5759914 -1.381644,-3.7112659 0.822037,-1.41740526 3.171195,-0.85403397 4.730688,-0.5490143 1.985644,0.3883702 3.831932,1.5639309 5.373127,2.9280764 1.357493,1.2015463 2.355643,2.8241026 3.212197,4.4531162 0.32028,0.6091147 0.700842,1.952052 0.700842,1.952052 0,0 -1.296148,-2.4589521 -2.159716,-3.5220221 C 22.657658,5.7697878 21.6091,4.5091622 20.252577,3.7923928 19.149571,3.209578 17.980998,2.658613 16.769012,2.3357553 c -0.975591,-0.259885 -2.00609,-0.5461775 -2.99923,-0.3734102 -0.33089,0.057562 -0.720703,0.1644155 -0.906723,0.455979 -0.297578,0.4664207 -0.151004,1.122691 -0.08614,1.6790767 0.05373,0.4608362 0.388787,1.3322038 0.388786,1.3322038 z"
         id="path3"
         sodipodi:nodetypes="caaaacasaaaac" /><path
         inkscape:original-d="M 0,0"
         inkscape:path-effect="#path-effect8"
         d="m 15.158537,3.8902438 c 0.931299,-0.056799 1.874029,0.081161 2.75,0.402439 1.711461,0.627709 3.110764,1.9289906 4.158536,3.4207317 0.970329,1.3814833 1.674595,2.9386875 2.682927,4.2926825 0.208578,0.280081 0.433805,0.554659 0.720489,0.754064 0.143342,0.0997 0.301396,0.179627 0.469616,0.226418 0.168221,0.04679 0.346847,0.05986 0.518576,0.02829 0.170271,-0.0313 0.331693,-0.106275 0.46882,-0.211955 0.137127,-0.10568 0.250096,-0.241631 0.333696,-0.393232 0.1672,-0.303204 0.214173,-0.663605 0.17173,-1.007242 -0.02875,-0.232762 -0.0971,-0.460583 -0.201221,-0.670732"
         id="path8"
         style="fill:#fcda06;stroke-width:1.05457" /><path
         style="fill:#000000;fill-opacity:1;fill-rule:nonzero;stroke:none;stroke-width:1.05457;stroke-linecap:round;stroke-linejoin:round;stroke-miterlimit:40;stroke-dasharray:none;stroke-opacity:1;paint-order:markers fill stroke"
         d="m 15.22561,3.957317 c 0.229392,0.012308 0.805833,0.091261 1.501573,0.2548349 0.313279,0.073654 0.718282,0.184335 1.167791,0.3674609 0.744287,0.2883537 1.496885,0.7346026 2.232027,1.3745431 0.634395,0.5522398 1.227995,1.2250729 1.761553,1.9988295 0.463977,0.6738217 0.856208,1.3732609 1.295918,2.1444746 0.40983,0.718806 0.84678,1.473574 1.364414,2.175431 0.103627,0.145855 0.217532,0.297382 0.345673,0.4406 0.130343,0.14568 0.275901,0.283371 0.44309,0.40116 0.182964,0.130548 0.37806,0.223514 0.576159,0.274689 0.207272,0.05356 0.440408,0.06221 0.668952,0.0027 0.222855,-0.05816 0.416334,-0.17599 0.566488,-0.321355 0.161108,-0.15604 0.267345,-0.338084 0.332605,-0.50924 0.08733,-0.188539 0.128394,-0.379373 0.143115,-0.552007 0.01222,-0.143337 0.0067,-0.277908 -0.0074,-0.396962 -0.0062,-0.05249 -0.01449,-0.104055 -0.02463,-0.154447 -0.07792,-0.325922 -0.222353,-0.551975 -0.294181,-0.65925 0.04374,0.127685 0.108078,0.37203 0.108261,0.682213 0.0019,0.04676 0.0021,0.09395 5.99e-4,0.141349 -0.0034,0.107936 -0.01724,0.225211 -0.0471,0.34481 -0.03615,0.144782 -0.09545,0.291337 -0.185846,0.42491 -0.09121,0.111754 -0.204694,0.209192 -0.334787,0.277225 -0.120977,0.06318 -0.248846,0.09739 -0.371153,0.102554 -0.124255,0.0054 -0.249968,-0.01689 -0.368198,-0.05388 -0.113531,-0.0355 -0.235192,-0.09249 -0.363074,-0.178145 -0.116378,-0.07944 -0.226475,-0.177217 -0.335979,-0.292397 C 25.293022,12.133322 25.190269,12.007671 25.08526,11.873449 24.587021,11.211225 24.159088,10.492553 23.738245,9.7768145 23.292587,9.0188717 22.874149,8.2987447 22.379737,7.607989 21.8067,6.8062496 21.167261,6.1082785 20.480521,5.538063 19.683879,4.8765935 18.865718,4.4213898 18.056246,4.1398992 17.56185,3.9768331 17.122296,3.8984206 16.785325,3.8636018 16.024928,3.7850308 15.45288,3.9170324 15.22561,3.957317 Z"
         id="path6"
         inkscape:path-effect="#path-effect6;#path-effect7"
         inkscape:original-d="m 15.22561,3.957317 c 0.871951,0.089431 1.810975,0.245935 2.75,0.402439 0.939024,0.1565042 3.53252,2.7052846 4.158536,3.4207317 0.626016,0.7154471 0.737805,1.9227644 2.682927,4.2926823 1.945123,2.369919 1.485103,0.941698 1.708681,1.008771 0.223577,0.06707 0.571807,-0.785193 0.974246,-1.612429 0.402439,-0.827236 -0.111789,-0.49187 -0.201221,-0.670732"
         transform="translate(-0.06707317,-0.06707317)"
         sodipodi:nodetypes="csssssc"
         inkscape:linked-fill="path8" /><path
         style="fill:#000000;fill-opacity:1;stroke:#000000;stroke-width:0.632742;stroke-linecap:round;stroke-linejoin:round;stroke-miterlimit:40;stroke-dasharray:none;stroke-opacity:1;paint-order:markers fill stroke"
         d="m 19.088554,5.2557682 c 1.750473,0.4348664 2.793434,2.4293195 3.938275,3.8939193 0.851037,1.0887345 1.178255,2.6000525 2.136724,3.5841755 0.255882,0.262731 0.921724,0.575238 0.921724,0.575238 0,0 -1.248787,0.476843 -1.885345,0.398242 C 21.605493,13.386984 18.916465,12.215184 17.07752,10.255915 16.14014,9.2572005 14.889115,7.6847848 15.443556,6.4062444 15.971598,5.1885796 17.854148,4.949107 19.088554,5.2557682 Z"
         id="path9"
         sodipodi:nodetypes="aaacaaaa" /><ellipse
         style="fill:#fefefe;fill-opacity:1;stroke:none;stroke-width:0.632743;stroke-linecap:round;stroke-linejoin:round;stroke-miterlimit:40;stroke-dasharray:none;stroke-opacity:1;paint-order:markers fill stroke"
         id="path10"
         cx="18.445122"
         cy="7.3780494"
         rx="1.6097561"
         ry="1.5426829" /><ellipse
         style="fill:#fefefe;fill-opacity:1;stroke:none;stroke-width:0.632743;stroke-linecap:round;stroke-linejoin:round;stroke-miterlimit:40;stroke-dasharray:none;stroke-opacity:1;paint-order:markers fill stroke"
         id="path10-3"
         cx="19.701727"
         cy="8.9054365"
         rx="0.63719511"
         ry="0.63719505" /><path
         style="fill:#000000;fill-rule:nonzero;stroke:none;stroke-width:1.05457;stroke-linecap:round;stroke-linejoin:round;stroke-miterlimit:40;stroke-opacity:1;paint-order:markers fill stroke"
         d="m 21.038624,13.922982 c 0.189877,0.01382 0.563878,0.04542 1.030599,0.13123 1.027686,0.18894 2.280548,0.625665 3.58456,1.437776 -1.6e-5,-10e-6 0.01967,0.01228 0.01966,0.01227 1.348704,0.843295 2.62624,2.000967 3.485353,3.522049 0.397486,0.621077 0.641921,1.262305 0.789379,1.665771 -0.0755,-0.299769 -0.376705,-1.177666 -0.619161,-1.754961 -0.770838,-1.58861 -1.891886,-2.998772 -3.305267,-3.967071 -0.0068,-0.0047 -0.01361,-0.0093 -0.02042,-0.01394 -1.348328,-0.917742 -2.754947,-1.314598 -3.823673,-1.507787 -0.496988,-0.08984 -0.893557,-0.124831 -1.096328,-0.139588 a 0.30794108,0.30794108 90 0 0 -0.0447,0.614258 z"
         id="path4"
         inkscape:path-effect="#path-effect4;#path-effect5"
         inkscape:original-d="m 21.060975,13.615853 c 2.794716,1.833334 5.522358,3.532521 8.182926,5.365854 2.66057,1.833333 0.614838,1.643293 0.70427,1.710366"
         sodipodi:nodetypes="csc"
         transform="translate(-10.31564,-5.7668838)" /><path
         style="fill:#000000;fill-rule:nonzero;stroke:none;stroke-width:1.03171;stroke-linecap:round;stroke-linejoin:round;stroke-miterlimit:40;stroke-opacity:1;paint-order:markers fill stroke"
         d="m 34.233872,24.938436 c -0.354653,-0.169463 -1.066197,-0.513853 -1.948841,-0.982992 -2.111741,-1.122423 -4.545101,-2.657973 -7.32406,-4.734593 -1.556684,-1.134075 -4.036348,-3.198422 -4.765883,-3.690507 -0.202859,-0.136832 -0.354068,-0.182285 -0.424777,-0.219208 0.0364,0.06976 0.083,0.223186 0.223742,0.423778 0.654065,0.93217 2.641095,2.866858 4.354348,4.276353 2.6977,2.166064 5.392601,3.724465 7.467292,4.827196 0.899923,0.478323 1.625413,0.829463 1.987041,1.002259 z"
         id="path5"
         inkscape:path-effect="#path-effect9;#path-effect10"
         inkscape:original-d="m 34.018303,25.389579 c -4.51626,-3.197155 -9.651505,-5.789116 -9.363617,-5.77352 0.381863,0.02069 -4.846441,-4.268344 -4.884375,-4.304923"
         sodipodi:nodetypes="csc"
         transform="matrix(1.0220276,0,0,1.0222949,-10.144334,-5.94197)" /><path
         style="fill:#ffffff;stroke:none;stroke-width:3.98578;stroke-linecap:round;stroke-linejoin:round;stroke-miterlimit:40;stroke-opacity:1;paint-order:markers fill stroke"
         d="M 105.75231,86.31542 C 98.77191,83.514173 83.48305,77.751204 78.470123,75.240557 72.283734,72.1422 68.646007,68.846705 66.323283,65.591699 c -1.053405,-1.476214 -3.316924,-4.247326 -2.729422,-6.74396 0.365566,-1.5535 3.757659,-2.809857 7.377087,-2.406267 0.932053,0.103931 2.228389,0.16388 2.852577,0.61213 0.856314,0.614948 0.509484,0.73422 0.84887,1.264765 1.016648,1.589277 2.965075,4.397339 6.643497,8.006814 6.622668,6.498535 14.341583,11.079032 22.206008,16.525032 1.52815,1.058221 -0.0581,1.374577 -0.0171,1.415279 0.28056,0.277974 5.28475,3.268791 2.24747,2.049928 z"
         id="path12"
         transform="matrix(0.26458333,0,0,0.26458333,-9.3902438,-5.3658535)"
         sodipodi:nodetypes="sssssssssss" /><path
         style="fill:#000000;fill-rule:nonzero;stroke:none;stroke-width:1.05457;stroke-linecap:round;stroke-linejoin:round;stroke-miterlimit:40;stroke-opacity:1;paint-order:markers fill stroke"
         d="m 23.039633,16.261052 c 0.0012,-0.0023 0.007,-0.01194 -0.02732,-0.04244 -0.04313,-0.03837 -0.173829,-0.149346 -0.670288,-0.426658 -0.349628,-0.195295 -0.979485,-0.522422 -1.736602,-0.820198 -0.608959,-0.239505 -1.377866,-0.490101 -2.115852,-0.577604 -0.340356,-0.04036 -0.692865,-0.04838 -1.02921,0.0053 -0.163927,0.02615 -0.327262,0.06746 -0.485287,0.128799 -0.155521,0.06037 -0.306543,0.140401 -0.447436,0.244755 -0.180088,0.105338 -0.351598,0.245121 -0.487223,0.437924 -0.13337,0.189598 -0.218114,0.411008 -0.252517,0.658308 -0.03361,0.241601 -0.01743,0.494261 0.03336,0.750349 0.05171,0.260702 0.14071,0.532231 0.257184,0.811674 0.295508,0.640493 0.699058,1.18561 1.142984,1.646471 0.480929,0.499276 1.017608,0.909013 1.53171,1.243153 0.08955,0.0582 0.178864,0.114398 0.267569,0.168621 0.978812,0.598315 2.029068,1.060364 3.120797,1.53117 2.118393,0.912648 4.218527,1.613443 5.930572,2.050924 0.649192,0.148502 1.561648,0.373097 2.199472,0.506768 0.786021,0.164729 1.111181,0.190049 1.257018,0.14405 0.124591,-0.0393 0.172993,-0.188866 0.18434,-0.225112 0.01135,-0.03625 0.05687,-0.186722 -0.02315,-0.290047 -0.09344,-0.120645 -0.375588,-0.285857 -1.115901,-0.597477 -0.664181,-0.279575 -1.391364,-0.55232 -2.103255,-0.830729 -1.643032,-0.598877 -3.578098,-1.362056 -5.639548,-2.308829 -1.111932,-0.509602 -2.031232,-0.922568 -2.921126,-1.452809 -0.07801,-0.04648 -0.156152,-0.09405 -0.234119,-0.142724 -0.450609,-0.281301 -0.897259,-0.600495 -1.291324,-0.969233 -0.361398,-0.338172 -0.681322,-0.720309 -0.926347,-1.162892 -0.128466,-0.21034 -0.222872,-0.381302 -0.294075,-0.526857 -0.06836,-0.139738 -0.109395,-0.243834 -0.13647,-0.321147 -0.02512,-0.07173 -0.0448,-0.136471 -0.04503,-0.197504 -2.63e-4,-0.06965 0.02323,-0.153018 0.09347,-0.253556 0.06544,-0.06436 0.142451,-0.121259 0.232131,-0.170565 0.09149,-0.0503 0.195305,-0.09221 0.311066,-0.125501 0.240628,-0.0692 0.52113,-0.09787 0.825201,-0.09435 0.662652,0.0077 1.399016,0.167268 2.019191,0.34046 0.737109,0.205847 1.435935,0.468233 1.784658,0.599869 0.571524,0.215739 0.645003,0.244958 0.741058,0.268757 0.04427,0.01097 0.049,0.0013 0.05031,-0.0011 z"
         id="path11"
         sodipodi:nodetypes="casssc"
         inkscape:path-effect="#path-effect11"
         inkscape:original-d="m 23.039633,16.261052 c 0,0 -4.601045,-2.491493 -6.237804,-1.152821 -0.510615,0.417621 -0.529101,0.985882 -0.03354,1.978659 1.052567,2.108652 3.564591,3.200836 5.717988,4.158537 2.048531,0.911063 4.073453,1.652147 5.78506,2.179877 1.148213,0.354022 3.441568,1.071979 3.441568,1.071979"
         transform="translate(-9.3902438,-5.3658536)" /><path
         inkscape:original-d="M 0,0"
         inkscape:path-effect="#path-effect15"
         d="M 28.873803,22.927855 C 27.529225,22.39417 26.218251,21.775841 24.951219,21.077744 22.69171,19.832822 20.572456,18.333562 18.646341,16.617377"
         id="path15"
         style="fill:#ffffff;stroke-width:1.05457"
         transform="translate(-9.3902438,-5.3658536)" /><path
         style="fill:#000000;fill-rule:nonzero;stroke:none;stroke-width:0.527286;stroke-linecap:round;stroke-linejoin:round;stroke-miterlimit:40;stroke-dasharray:none;stroke-opacity:1;paint-order:markers fill stroke"
         d="m 28.873803,22.927855 c -0.119086,-0.0921 -0.371521,-0.358118 -0.704584,-0.560301 -0.659179,-0.400147 -2.08287,-0.981953 -3.097357,-1.508774 -2.083735,-1.110849 -3.705398,-2.186932 -5.095878,-3.223174 -0.617677,-0.460319 -1.081193,-0.818176 -1.329643,-1.018229 0.216278,0.212992 0.652716,0.649169 1.224519,1.148438 1.24693,1.088755 2.950847,2.388156 4.959716,3.530893 1.06262,0.619548 2.315312,1.308543 3.142548,1.530789 0.384749,0.103367 0.748622,0.0855 0.900679,0.100358 z"
         id="path13"
         inkscape:path-effect="#path-effect13;#path-effect14"
         inkscape:original-d="m 28.873803,22.927855 c -3.096544,-2.123984 2.185371,0.366694 -3.922584,-1.850111 -1.469746,-0.533425 -6.187115,-4.401484 -6.304878,-4.460367"
         sodipodi:nodetypes="csc"
         inkscape:linked-fill="path15"
         transform="translate(-9.3902438,-5.3658536)" /><path
         style="fill:none;stroke:#000000;stroke-width:0.316371;stroke-linecap:round;stroke-linejoin:round;stroke-miterlimit:40;stroke-dasharray:none;stroke-opacity:1;paint-order:markers fill stroke"
         d="m 18.710304,18.354595 c 0.353954,-0.827765 1.132836,-1.460034 2.015685,-1.636263 0.117386,-0.02343 0.236284,-0.03929 0.355709,-0.04743"
         id="path16"
         inkscape:path-effect="#path-effect16"
         inkscape:original-d="m 18.710304,18.354595 c 0.671895,-0.529612 1.320076,-1.082937 2.015685,-1.636263 0.695609,-0.553325 0.252949,-0.03162 0.355709,-0.04743"
         transform="translate(-9.3902438,-5.3658536)" /><path
         style="fill:none;stroke:#000000;stroke-width:0.263643;stroke-linecap:round;stroke-linejoin:round;stroke-miterlimit:40;stroke-dasharray:none;stroke-opacity:1;paint-order:markers fill stroke"
         d="m 18.710304,18.354595 c 0.353954,-0.827765 1.132836,-1.460034 2.015685,-1.636263 0.117386,-0.02343 0.236284,-0.03929 0.355709,-0.04743"
         id="path16-3"
         inkscape:path-effect="#path-effect16-7"
         inkscape:original-d="m 18.710304,18.354595 c 0.671895,-0.529612 1.320076,-1.082937 2.015685,-1.636263 0.695609,-0.553325 0.252949,-0.03162 0.355709,-0.04743"
         transform="translate(-7.845671,-4.0472279)" /><path
         style="fill:none;stroke:#000000;stroke-width:0.210914;stroke-linecap:round;stroke-linejoin:round;stroke-miterlimit:40;stroke-dasharray:none;stroke-opacity:1;paint-order:markers fill stroke"
         d="m 18.710304,18.354595 c 0.353954,-0.827765 1.132836,-1.460034 2.015685,-1.636263 0.117386,-0.02343 0.236284,-0.03929 0.355709,-0.04743"
         id="path16-3-8"
         inkscape:path-effect="#path-effect16-7-3"
         inkscape:original-d="m 18.710304,18.354595 c 0.671895,-0.529612 1.320076,-1.082937 2.015685,-1.636263 0.695609,-0.553325 0.252949,-0.03162 0.355709,-0.04743"
         transform="translate(-6.2154859,-2.9856634)" /><path
         style="fill:#ffffff;fill-opacity:0.41954;stroke:none;stroke-width:0.210914;stroke-linecap:round;stroke-linejoin:round;stroke-miterlimit:40;stroke-dasharray:none;stroke-opacity:1;paint-order:markers fill stroke"
         d="m 34.717217,11.619834 0.901131,1.991971 c 0,0 2.623485,1.131003 3.699375,2.0394 0.75649,0.638721 1.321932,1.486283 1.849689,2.323967 0.327901,0.520462 0.806273,1.659976 0.806273,1.659976 0,0 -0.166876,-1.534416 -0.474279,-2.229111 -0.449179,-1.015092 -1.188781,-1.890372 -1.944542,-2.70339 -0.771765,-0.830235 -1.636491,-1.598553 -2.608535,-2.181683 -0.687272,-0.412295 -2.229112,-0.90113 -2.229112,-0.90113 z"
         id="path17"
         sodipodi:nodetypes="ccaacaaac"
         transform="translate(-9.3902438,-5.3658536)" /><path
         style="fill:#000000;fill-opacity:1;fill-rule:nonzero;stroke:none;stroke-width:0.173819;stroke-linecap:round;stroke-linejoin:round;stroke-miterlimit:40;stroke-dasharray:none;stroke-opacity:1;paint-order:markers fill stroke"
         d="m 30.283536,8.7865851 c 0.226911,-0.3286844 0.802571,-1.0495416 1.436575,-1.9007077 1.536559,-2.0628684 3.476947,-4.6861457 6.619145,-6.92558441 0.01582,-0.01127753 0.03171,-0.02257166 0.04767,-0.03388179 0.651613,-0.24168764 1.515541,-0.3693291 1.910517,-0.4458555 0.06511,-0.0126145 0,0 0,0 A 1.4020585,1.4020585 90 0 0 38.71475,-2.8342141 c 0,0 0.04061,-0.05967 0,0 -0.197801,0.2906216 -0.746049,1.2468773 -1.107773,1.767559 -1.06e-4,9.09e-5 -0.04615,0.039954 -0.04625,0.040045 -2.960176,2.5675306 -5.183466,5.2945501 -6.369195,7.5823453 -0.507868,0.9799006 -0.768377,1.8404184 -0.907995,2.23085 z"
         id="path18"
         inkscape:path-effect="#path-effect18;#path-effect19"
         inkscape:original-d="m 30.283536,8.7865851 c 2.75,-3.297764 4.929876,-6.0589428 7.713415,-9.35670704 2.783535,-3.29776396 1.207316,-0.91666666 1.509145,-1.10670726"
         sodipodi:nodetypes="csc"
         inkscape:transform-center-x="-6.4407729"
         inkscape:transform-center-y="-6.8596912"
         transform="matrix(1.2460721,-0.03762425,0.03279131,1.1806187,-17.938851,-5.7159373)" /><path
         style="fill:#000000;fill-opacity:1;fill-rule:nonzero;stroke:none;stroke-width:0.177011;stroke-linecap:round;stroke-linejoin:round;stroke-miterlimit:40;stroke-dasharray:none;stroke-opacity:1;paint-order:markers fill stroke"
         d="m 30.283536,8.7865851 c 0.22361,-0.330377 0.789121,-1.0582977 1.417697,-1.9124985 1.524336,-2.0714904 3.474725,-4.6975784 6.610218,-6.94904016 0.01581,-0.01135027 0.03168,-0.0227177 0.04762,-0.0341017 0.643962,-0.25461083 1.49059,-0.40598444 1.881847,-0.49305939 0.06428,-0.0143051 0,0 0,0 A 1.3019114,1.3019114 90 0 0 38.771275,-2.7515437 c 0,0 0.04152,-0.05803 0,0 -0.202062,0.2824363 -0.767313,1.2107651 -1.136443,1.7203551 -1.03e-4,8.84e-5 -0.0462,0.0397365 -0.0463,0.0398249 -2.966333,2.55602399 -5.17999,5.27835749 -6.378122,7.55888959 -0.512415,0.9753319 -0.783562,1.8296619 -0.926873,2.2190592 z"
         id="path18-4"
         inkscape:path-effect="#path-effect18-4;#path-effect19-9"
         inkscape:original-d="m 30.283536,8.7865851 c 2.75,-3.297764 4.929876,-6.0589428 7.713415,-9.35670704 2.783535,-3.29776396 1.207316,-0.91666666 1.509145,-1.10670726"
         sodipodi:nodetypes="csc"
         transform="matrix(1.1533243,0.41969213,-0.4595967,1.0637588,-8.8554671,-18.342828)"
         inkscape:transform-center-x="-8.5419466"
         inkscape:transform-center-y="-4.299976" /></g></g></svg>
