<?xml version="1.0" encoding="UTF-8" standalone="no"?>
<!-- Created with Inkscape (http://www.inkscape.org/) -->

<svg
   width="279.86942"
   height="359.46994"
   viewBox="0 0 74.04878 95.109749"
   version="1.1"
   id="svg1"
   inkscape:version="1.3.2 (091e20e, 2023-11-25, custom)"
   sodipodi:docname="bumble.svg"
   xml:space="preserve"
   inkscape:export-filename="assets\Wings.svg"
   inkscape:export-xdpi="96"
   inkscape:export-ydpi="96"
   xmlns:inkscape="http://www.inkscape.org/namespaces/inkscape"
   xmlns:sodipodi="http://sodipodi.sourceforge.net/DTD/sodipodi-0.dtd"
   xmlns="http://www.w3.org/2000/svg"
   xmlns:svg="http://www.w3.org/2000/svg"><sodipodi:namedview
     id="namedview1"
     pagecolor="#ffffff"
     bordercolor="#000000"
     borderopacity="0.25"
     inkscape:showpageshadow="2"
     inkscape:pageopacity="0.0"
     inkscape:pagecheckerboard="true"
     inkscape:deskcolor="#d1d1d1"
     inkscape:document-units="mm"
     inkscape:zoom="1.9723485"
     inkscape:cx="132.58306"
     inkscape:cy="198.74784"
     inkscape:window-width="2245"
     inkscape:window-height="1122"
     inkscape:window-x="2474"
     inkscape:window-y="54"
     inkscape:window-maximized="0"
     inkscape:current-layer="g1" /><defs
     id="defs1"><inkscape:path-effect
       effect="spiro"
       id="path-effect24-3"
       is_visible="true"
       lpeversion="1" /><inkscape:path-effect
       effect="spiro"
       id="path-effect26-8"
       is_visible="true"
       lpeversion="1" /><inkscape:path-effect
       effect="spiro"
       id="path-effect27-4"
       is_visible="true"
       lpeversion="1" /><inkscape:path-effect
       effect="spiro"
       id="path-effect28-8"
       is_visible="true"
       lpeversion="1" /><inkscape:path-effect
       effect="powerstroke"
       id="path-effect29-0"
       is_visible="true"
       lpeversion="1.3"
       scale_width="1"
       interpolator_type="CentripetalCatmullRom"
       interpolator_beta="0.2"
       start_linecap_type="round"
       end_linecap_type="round"
       offset_points="0.2,0.37500051 | 2,0.37500051 | 3.6537915,0.12290171"
       linejoin_type="round"
       miter_limit="4"
       not_jump="false"
       sort_points="true"
       message="&lt;b&gt;Ctrl + click&lt;/b&gt; on existing node and move it" /><inkscape:path-effect
       effect="spiro"
       id="path-effect32-9"
       is_visible="true"
       lpeversion="1" /><inkscape:path-effect
       effect="powerstroke"
       id="path-effect33-3"
       is_visible="true"
       lpeversion="1.3"
       scale_width="0.8"
       interpolator_type="CentripetalCatmullRom"
       interpolator_beta="0.2"
       start_linecap_type="round"
       end_linecap_type="round"
       offset_points="0,0.42853377 | 2.5,0.37500051 | 3.7981784,0.37477729"
       linejoin_type="round"
       miter_limit="4"
       not_jump="false"
       sort_points="true"
       message="&lt;b&gt;Ctrl + click&lt;/b&gt; on existing node and move it" /><inkscape:path-effect
       effect="spiro"
       id="path-effect32-9-6"
       is_visible="true"
       lpeversion="1" /><inkscape:path-effect
       effect="powerstroke"
       id="path-effect33-3-3"
       is_visible="true"
       lpeversion="1.3"
       scale_width="1"
       interpolator_type="CentripetalCatmullRom"
       interpolator_beta="0.2"
       start_linecap_type="round"
       end_linecap_type="round"
       offset_points="0,0.42853377 | 2.5,0.37500051 | 3.7981784,0.37477729"
       linejoin_type="round"
       miter_limit="4"
       not_jump="false"
       sort_points="true"
       message="&lt;b&gt;Ctrl + click&lt;/b&gt; on existing node and move it" /><inkscape:path-effect
       effect="spiro"
       id="path-effect32-9-6-0"
       is_visible="true"
       lpeversion="1" /><inkscape:path-effect
       effect="powerstroke"
       id="path-effect33-3-3-7"
       is_visible="true"
       lpeversion="1.3"
       scale_width="1"
       interpolator_type="CentripetalCatmullRom"
       interpolator_beta="0.2"
       start_linecap_type="round"
       end_linecap_type="round"
       offset_points="0,0.42853377 | 2.5,0.37500051 | 3.7981784,0.37477729"
       linejoin_type="round"
       miter_limit="4"
       not_jump="false"
       sort_points="true"
       message="&lt;b&gt;Ctrl + click&lt;/b&gt; on existing node and move it" /></defs><g
     id="g1"
     inkscape:label="Bumble"
     transform="translate(-0.13414634,-0.13414634)"><g
       id="layer4-7"
       inkscape:label="Left Arm"
       transform="matrix(0.51457582,-0.55875936,0.5463464,0.51690316,14.485517,32.626281)"
       inkscape:transform-center-x="-7.0152303"
       inkscape:transform-center-y="6.7362277"
       style="display:inline;stroke-width:1.32306"><path
         style="fill:#fcda06;fill-opacity:1;stroke:#000000;stroke-width:1.66522;stroke-linecap:round;stroke-linejoin:round;stroke-miterlimit:40;stroke-dasharray:none;stroke-opacity:1;paint-order:markers fill stroke"
         d="m 38.982626,50.882481 c -0.368724,-1.144405 -1.259018,-2.109284 -2.370129,-2.568687 -1.111112,-0.459404 -2.422848,-0.404985 -3.492089,0.144875 -1.06924,0.54986 -1.876552,1.585167 -2.149217,2.756181 -0.272665,1.171015 -0.0057,2.456455 0.710641,3.422084 0.477589,0.643767 1.145374,1.144606 1.897116,1.422836"
         id="path23-9"
         inkscape:path-effect="#path-effect24-3"
         inkscape:original-d="m 38.982626,50.882481 c -1.574869,1.623135 -4.549976,3.058842 -7.300794,3.754453 -2.750817,0.695608 1.327981,0.948558 1.897116,1.422836"
         transform="matrix(0.18931589,0.78103206,-0.75621324,0.21471795,50.805228,-7.1136592)"
         sodipodi:nodetypes="csc" /><path
         style="display:inline;fill:#fcda06;fill-opacity:1;stroke:#000000;stroke-width:0.798141;stroke-linecap:round;stroke-linejoin:round;stroke-miterlimit:40;stroke-dasharray:none;stroke-opacity:1;paint-order:markers fill stroke"
         d="m 14.831039,31.134726 c 0,0 -4.9641945,4.324165 -6.4224108,7.18701 -0.5432505,1.066537 -0.9652176,2.330669 -0.7588462,3.509666 0.6368143,3.638112 5.881058,9.390722 5.881058,9.390722 l 3.035386,-2.655962 c 0,0 -4.92326,-5.225446 -4.268511,-8.252452 0.566607,-2.619515 6.31506,-4.976559 6.31506,-4.976559"
         id="path25-1"
         sodipodi:nodetypes="caaccac" /><path
         style="display:inline;fill:#ffffff;fill-opacity:1;stroke:none;stroke-width:0.205713;stroke-linecap:round;stroke-linejoin:round;stroke-miterlimit:40;stroke-dasharray:none;stroke-opacity:1;paint-order:markers fill stroke"
         d="m 178.15057,185.21382 c -1.04389,-0.0999 -4.77557,-0.13651 -4.15873,-0.98404 l 0.24497,-0.33659 -0.2596,-0.47427 c -1.10252,-2.01425 0.28263,-3.51096 0.28547,-5.79246 0.002,-1.49567 -0.17388,-2.3566 -0.25869,-3.05619 -0.42754,-3.52822 -1.95262,-6.0643 -2.02509,-8.02173 l -0.0227,-0.61193 0.0448,-0.51378 c 0.0978,-1.12139 0.57012,-2.41843 1.20422,-3.30705 0.87521,-1.22649 2.24271,-2.16443 3.76171,-2.5801 0.66776,-0.18273 2.24808,-0.19711 2.86305,-0.0261 1.45728,0.40534 2.56027,1.12246 3.3735,2.19331 0.42633,0.56139 0.90284,1.56051 1.07374,2.25136 0.21182,0.85628 0.19734,2.16889 -0.0336,3.04206 -0.52645,1.99078 -1.96405,3.66403 -3.83035,4.45821 -0.45324,0.19287 -1.27214,0.413 -1.79868,0.48351 -0.39334,0.0527 -0.68526,0.25672 -0.86437,0.60421 -0.37699,0.73138 0.10851,1.52233 0.93247,1.51915 0.369,-10e-4 1.27267,-0.1791 1.80096,-0.3541 0.16783,-0.0556 0.31957,-0.0867 0.33721,-0.069 0.0176,0.0176 -0.0252,0.22731 -0.0952,0.46593 -0.3212,1.09492 -0.33283,2.28956 -0.0333,3.41454 0.2024,0.76005 0.20221,0.75567 0.0609,1.39228 -0.15006,0.67582 -0.15288,2.02705 -0.006,2.72518 0.19906,0.94409 0.58577,1.88541 1.07818,2.62447 0.26552,0.39851 0.2774,0.38139 -0.41942,0.60443 -0.99568,0.31869 -2.20983,0.44871 -3.25589,0.34866 z"
         id="path40"
         transform="matrix(0.20716582,0.2468294,-0.24581139,0.2063114,23.746716,-27.805119)"
         sodipodi:nodetypes="cscsccscssscsscssscssssscsscc" /><path
         style="display:inline;fill:#000000;fill-opacity:1;fill-rule:nonzero;stroke:none;stroke-width:1.48493;stroke-linecap:round;stroke-linejoin:round;stroke-miterlimit:40;stroke-dasharray:none;stroke-opacity:1;paint-order:markers fill stroke"
         d="m 14.325805,52.726861 c -0.02636,0.102645 -0.09031,0.36234 -0.122545,0.705468 -0.02305,0.245337 -0.03866,0.618902 0.02203,1.069461 0.07005,0.519958 0.237925,1.109833 0.566623,1.685056 0.298979,0.523213 0.69997,0.978673 1.164071,1.343657 0.533513,0.419573 1.088667,0.672557 1.580198,0.814525 0.720293,0.208041 1.48022,0.226805 2.19824,0.0832 0.976149,-0.19523 1.643554,-0.638695 1.997144,-0.922278 a 0.37500051,0.37500051 90 0 0 -0.46924,-0.585078 c -0.291254,0.23359 -0.850756,0.607072 -1.674992,0.771919 -0.607721,0.121544 -1.245449,0.104287 -1.843038,-0.06831 -0.408756,-0.11806 -0.874912,-0.329796 -1.324683,-0.68351 -0.391528,-0.307911 -0.727547,-0.690533 -0.976516,-1.126228 -0.273918,-0.479356 -0.41539,-0.974163 -0.47452,-1.413084 -0.05112,-0.379507 -0.03791,-0.693705 -0.01861,-0.899169 0.02699,-0.287259 0.08045,-0.504109 0.102271,-0.58911 a 0.37500051,0.37500051 90 0 0 -0.726438,-0.186518 z"
         id="path28-9"
         inkscape:path-effect="#path-effect28-8;#path-effect29-0"
         inkscape:original-d="m 14.689024,52.82012 c 0.939025,1.66565 1.978659,3.498984 2.95122,5.164634 0.97256,1.66565 2.246951,-0.469512 3.856707,-0.771341"
         sodipodi:nodetypes="csc"
         transform="matrix(0.64056608,0.18894345,-0.176012,0.64521437,14.653497,14.590233)" /><path
         style="fill:#ffffff;fill-opacity:1;stroke:#000000;stroke-width:0.708525;stroke-linecap:round;stroke-linejoin:round;stroke-miterlimit:40;stroke-dasharray:none;stroke-opacity:1;paint-order:markers fill stroke"
         d="m 14.890244,50.875001 c -0.17576,0.14203 -0.306589,0.338851 -0.369506,0.555888 -0.06292,0.217038 -0.05764,0.453315 0.01491,0.667327 0.07255,0.214011 0.212034,0.404794 0.393961,0.538833 0.181926,0.13404 0.405472,0.210734 0.631369,0.216609 0.191627,0.005 0.382078,-0.03979 0.560751,-0.109222 0.178674,-0.06944 0.346781,-0.163197 0.51242,-0.259681 1.315754,-0.766423 2.552191,-1.767085 3.253049,-3.118903 0.08334,-0.160739 0.159127,-0.32695 0.201219,-0.503047 0.05224,-0.218553 0.05071,-0.450541 -0.01054,-0.666742 -0.06125,-0.216201 -0.182788,-0.415866 -0.350947,-0.564918 -0.16816,-0.149053 -0.382879,-0.246224 -0.606533,-0.267975 -0.223655,-0.02175 -0.455037,0.03313 -0.64174,0.158171 -0.211873,0.141903 -0.355991,0.361795 -0.503049,0.570123 -0.805405,1.140966 -1.867795,2.099428 -3.085365,2.783537 z"
         id="path26-9"
         inkscape:path-effect="#path-effect26-8"
         inkscape:original-d="m 14.890244,50.875001 c -0.245936,0.950201 0.301829,1.408536 0.670731,1.978657 0.368903,0.570122 0.961382,-0.290652 1.073171,-0.368903 0.111788,-0.07825 2.044803,-1.822155 3.253049,-3.118903 1.134117,-1.217188 0.05589,-0.335365 0.201219,-0.503047 0.145325,-0.167685 -1.095528,-0.905489 -1.609756,-1.341464 -0.514228,-0.435975 -0.29065,0.413616 -0.503049,0.570123 -0.212398,0.156503 -0.693089,0.491869 -3.085365,2.783537 z"
         transform="translate(-2.0457317,0.20121949)"
         sodipodi:nodetypes="cssssssc" /><path
         style="fill:none;fill-opacity:1;stroke:#000000;stroke-width:0.885683;stroke-linecap:round;stroke-linejoin:round;stroke-miterlimit:40;stroke-dasharray:none;stroke-opacity:1;paint-order:markers fill stroke"
         d="m 18.981707,48.762194 c 0.377846,-0.430116 0.887151,-0.743153 1.441546,-0.886027 0.554395,-0.142874 1.15156,-0.114987 1.690227,0.07893 0.538667,0.19392 1.016581,0.553061 1.352697,1.016519 0.336116,0.463458 0.529026,1.029293 0.546018,1.60155 0.01698,0.571803 -0.141748,1.14763 -0.4493,1.629977 -0.307553,0.482347 -0.76265,0.869202 -1.288231,1.09506 -0.525581,0.225858 -1.119454,0.289777 -1.681059,0.180934 -0.561605,-0.108843 -1.0886,-0.389995 -1.491751,-0.795848"
         id="path27-4"
         inkscape:path-effect="#path-effect27-4"
         inkscape:original-d="m 18.981707,48.762194 c 1.721545,0.648375 3.443089,1.162601 5.030488,1.810975 1.587398,0.648375 -4.977411,1.886545 -4.910341,2.110123"
         transform="matrix(0.83782043,0,0,0.80571533,2.2344459,9.5447412)"
         sodipodi:nodetypes="csc" /><path
         style="fill:#000000;fill-opacity:1;fill-rule:nonzero;stroke:none;stroke-width:0.888185;stroke-linecap:round;stroke-linejoin:round;stroke-miterlimit:40;stroke-dasharray:none;stroke-opacity:1;paint-order:markers fill stroke"
         d="m 20.170367,53.18335 c 0,0 0.155806,-0.217918 0,0 -0.172047,0.240632 -0.402646,0.647997 -0.494686,1.210884 -0.06451,0.394504 -0.05597,0.846814 0.08221,1.301043 0.126427,0.415597 0.35268,0.801274 0.653871,1.122927 0.308349,0.329297 0.679722,0.57528 1.073935,0.724388 0.460583,0.174212 0.911987,0.202626 1.281183,0.167965 0.464159,-0.04358 0.882218,-0.192665 1.225905,-0.402339 0.382624,-0.233429 0.692721,-0.552662 0.917805,-0.906609 0.135791,-0.213532 0.246853,-0.449319 0.324207,-0.701011 0.04876,-0.158669 0.0866,-0.33144 0.10648,-0.515489 0.04913,-0.454934 -0.01901,-0.912758 -0.179186,-1.32816 -0.217042,-0.562875 -0.549684,-0.918475 -0.758896,-1.104627 a 0.29982183,0.29982183 90 0 0 -0.398604,0.44798 c 0.161306,0.143528 0.425096,0.423915 0.598029,0.87238 0.128026,0.332006 0.180743,0.693986 0.142499,1.048039 -0.01546,0.143161 -0.04501,0.278499 -0.0835,0.403702 -0.06107,0.198655 -0.148734,0.386094 -0.256509,0.556578 -0.179078,0.283275 -0.424158,0.536079 -0.722824,0.718409 -0.267889,0.163541 -0.598721,0.281586 -0.969499,0.31359 -0.295647,0.02552 -0.651237,-0.0021 -1.007097,-0.142067 -0.303722,-0.119482 -0.5925,-0.31597 -0.831849,-0.579581 -0.233913,-0.257625 -0.403967,-0.561253 -0.495211,-0.880061 -0.09981,-0.348757 -0.101225,-0.698296 -0.04579,-1.004596 0.07878,-0.435311 0.262046,-0.743902 0.392714,-0.920985 0.11921,-0.161554 0,0 0,0 a 0.34282702,0.34282702 90 0 0 -0.555182,-0.40236 z"
         id="path31-9"
         inkscape:path-effect="#path-effect32-9;#path-effect33-3"
         inkscape:original-d="m 20.447958,53.38453 c 1.900406,0.424796 4.587724,2.184593 4.595236,1.768385 0.0087,-0.484641 -1.317247,-2.1976 -0.839305,-2.176603"
         transform="matrix(0.83498584,-0.2640345,0.29935766,0.86205163,-14.086235,12.28529)"
         sodipodi:nodetypes="csc" /><path
         style="display:inline;fill:#000000;fill-opacity:1;fill-rule:nonzero;stroke:none;stroke-width:1.21628;stroke-linecap:round;stroke-linejoin:round;stroke-miterlimit:40;stroke-dasharray:none;stroke-opacity:1;paint-order:markers fill stroke"
         d="m 20.100969,53.133055 c 0,0 0.160379,-0.224961 0,0 -0.17722,0.248584 -0.413734,0.66828 -0.507432,1.247122 -0.06564,0.405528 -0.05621,0.870686 0.08676,1.338098 0.130824,0.427699 0.364104,0.823626 0.673703,1.153285 0.316971,0.337508 0.698675,0.589679 1.104196,0.742489 0.47367,0.178491 0.937057,0.207004 1.315444,0.171203 0.475828,-0.04502 0.904795,-0.197993 1.257955,-0.413433 0.393118,-0.239816 0.711344,-0.567353 0.942179,-0.930134 0.139293,-0.218914 0.253279,-0.460743 0.332669,-0.719066 0.05005,-0.162851 0.08892,-0.340301 0.109352,-0.529461 0.05049,-0.467545 -0.01958,-0.937349 -0.183772,-1.363176 -0.222556,-0.577176 -0.563804,-0.942177 -0.779004,-1.133658 A 0.37477729,0.37477729 90 0 0 23.954761,53.2563 c 0.155318,0.138199 0.410501,0.409185 0.577922,0.843349 0.124006,0.321581 0.174796,0.671581 0.137912,1.013023 -0.01491,0.13805 -0.04343,0.268709 -0.08063,0.38973 -0.05903,0.192025 -0.143774,0.373419 -0.248048,0.538523 -0.173326,0.274441 -0.410281,0.518943 -0.698451,0.694884 -0.258411,0.157773 -0.578347,0.271941 -0.937448,0.302496 -0.28645,0.02437 -0.630071,-0.0031 -0.972836,-0.138829 -0.292406,-0.115779 -0.570869,-0.306081 -0.801588,-0.561481 -0.225503,-0.249625 -0.388534,-0.542989 -0.475379,-0.849703 -0.09502,-0.335571 -0.09554,-0.672266 -0.04124,-0.967539 0.07713,-0.419375 0.25447,-0.715598 0.379968,-0.884748 0.114634,-0.154506 0,0 0,0 a 0.42853377,0.42853377 90 0 0 -0.693978,-0.50295 z"
         id="path31-9-1"
         inkscape:path-effect="#path-effect32-9-6;#path-effect33-3-3"
         inkscape:original-d="m 20.447958,53.38453 c 1.900406,0.424796 4.587724,2.184593 4.595236,1.768385 0.0087,-0.484641 -1.317247,-2.1976 -0.839305,-2.176603"
         transform="matrix(0.59619348,0.62723927,-0.52772116,0.56124972,35.020635,10.145432)"
         sodipodi:nodetypes="csc" /><path
         style="display:inline;fill:#000000;fill-opacity:1;fill-rule:nonzero;stroke:none;stroke-width:1.31366;stroke-linecap:round;stroke-linejoin:round;stroke-miterlimit:40;stroke-dasharray:none;stroke-opacity:1;paint-order:markers fill stroke"
         d="m 20.100969,53.133055 c 0,0 0.160379,-0.224961 0,0 -0.17722,0.248584 -0.413734,0.66828 -0.507432,1.247122 -0.06564,0.405528 -0.05621,0.870686 0.08676,1.338098 0.130824,0.427699 0.364104,0.823626 0.673703,1.153285 0.316971,0.337508 0.698675,0.589679 1.104196,0.742489 0.47367,0.178491 0.937057,0.207004 1.315444,0.171203 0.475828,-0.04502 0.904795,-0.197993 1.257955,-0.413433 0.393118,-0.239816 0.711344,-0.567353 0.942179,-0.930134 0.139293,-0.218914 0.253279,-0.460743 0.332669,-0.719066 0.05005,-0.162851 0.08892,-0.340301 0.109352,-0.529461 0.05049,-0.467545 -0.01958,-0.937349 -0.183772,-1.363176 -0.222556,-0.577176 -0.563804,-0.942177 -0.779004,-1.133658 A 0.37477729,0.37477729 90 0 0 23.954761,53.2563 c 0.155318,0.138199 0.410501,0.409185 0.577922,0.843349 0.124006,0.321581 0.174796,0.671581 0.137912,1.013023 -0.01491,0.13805 -0.04343,0.268709 -0.08063,0.38973 -0.05903,0.192025 -0.143774,0.373419 -0.248048,0.538523 -0.173326,0.274441 -0.410281,0.518943 -0.698451,0.694884 -0.258411,0.157773 -0.578347,0.271941 -0.937448,0.302496 -0.28645,0.02437 -0.630071,-0.0031 -0.972836,-0.138829 -0.292406,-0.115779 -0.570869,-0.306081 -0.801588,-0.561481 -0.225503,-0.249625 -0.388534,-0.542989 -0.475379,-0.849703 -0.09502,-0.335571 -0.09554,-0.672266 -0.04124,-0.967539 0.07713,-0.419375 0.25447,-0.715598 0.379968,-0.884748 0.114634,-0.154506 0,0 0,0 a 0.42853377,0.42853377 90 0 0 -0.693978,-0.50295 z"
         id="path31-9-1-5"
         inkscape:path-effect="#path-effect32-9-6-0;#path-effect33-3-3-7"
         inkscape:original-d="m 20.447958,53.38453 c 1.900406,0.424796 4.587724,2.184593 4.595236,1.768385 0.0087,-0.484641 -1.317247,-2.1976 -0.839305,-2.176603"
         transform="matrix(0.43693062,0.61522079,-0.59316276,0.47070096,40.907571,16.080236)"
         sodipodi:nodetypes="csc" /><path
         style="fill:#ffffff;fill-opacity:1;stroke:#000000;stroke-width:0.205713;stroke-linecap:round;stroke-linejoin:round;stroke-miterlimit:40;stroke-dasharray:none;stroke-opacity:1;paint-order:markers fill stroke"
         d="m 187.18168,175.26953 c -1.50065,-0.32106 -2.92357,-1.22517 -3.80991,-2.42077 l -0.3302,-0.44541 0.31137,-0.25834 c 1.8431,-1.52926 2.99763,-3.74417 3.18835,-6.11671 0.0531,-0.66014 0.009,-1.72819 -0.0919,-2.21078 l -0.0417,-0.20015 0.49792,-0.11673 c 0.7451,-0.17468 2.26704,-0.16052 3.02074,0.0281 1.78857,0.44762 3.23721,1.55906 4.14968,3.18373 0.46987,0.83661 0.75902,2.14297 0.67959,3.07036 -0.15026,1.75442 -1.01217,3.3315 -2.37145,4.33918 -1.45838,1.08115 -3.45461,1.52145 -5.20245,1.14751 z"
         id="path37"
         transform="matrix(0.20716582,0.2468294,-0.24581139,0.2063114,23.746716,-27.805118)" /><path
         style="fill:#ffffff;fill-opacity:1;stroke:#000000;stroke-width:0.205713;stroke-linecap:round;stroke-linejoin:round;stroke-miterlimit:40;stroke-dasharray:none;stroke-opacity:1;paint-order:markers fill stroke"
         d="m 188.00557,181.31229 c -2.04662,-0.25034 -3.8877,-1.47427 -4.72817,-3.14322 -0.3493,-0.69361 -0.49196,-1.30587 -0.49225,-2.11255 -2.9e-4,-0.82752 0.0293,-0.90832 0.26606,-0.72595 1.15471,0.8895 2.35084,1.44702 3.75354,1.74955 0.7438,0.16042 2.41168,0.16228 3.16548,0.004 1.35139,-0.2846 2.55404,-0.81789 3.5504,-1.57435 l 0.56423,-0.42837 0.0712,0.23561 c 0.0392,0.12958 0.0865,0.52218 0.10521,0.87244 0.0278,0.52041 0.009,0.73434 -0.10084,1.1702 -0.50393,1.99275 -2.00003,3.37444 -4.1585,3.84048 -0.45128,0.0974 -1.59366,0.16189 -1.99635,0.11263 z"
         id="path38"
         transform="matrix(0.20716582,0.2468294,-0.24581139,0.2063114,23.746716,-27.805118)" /><path
         style="fill:#ffffff;fill-opacity:1;stroke:#000000;stroke-width:0.205713;stroke-linecap:round;stroke-linejoin:round;stroke-miterlimit:40;stroke-dasharray:none;stroke-opacity:1;paint-order:markers fill stroke"
         d="m 187.40349,185.74583 c -0.52304,-0.0621 -0.99487,-0.17682 -1.4148,-0.34397 -1.62742,-0.6478 -2.92066,-2.18644 -3.27351,-3.89469 -0.14037,-0.67958 -0.13512,-0.70378 0.10938,-0.50404 1.0894,0.88992 2.24758,1.53292 3.31141,1.83842 1.89918,0.54539 4.21279,0.43543 5.87814,-0.27937 0.38694,-0.16608 0.3872,-0.11981 0.004,0.63078 -0.54594,1.06812 -1.54118,1.94268 -2.61781,2.30036 -0.6867,0.22815 -1.42021,0.32092 -1.99636,0.25251 z"
         id="path39"
         transform="matrix(0.20716582,0.2468294,-0.24581139,0.2063114,23.746716,-27.805118)" /></g></g></svg>
