<?xml version="1.0" encoding="UTF-8" standalone="no"?>
<!-- Created with Inkscape (http://www.inkscape.org/) -->

<svg
   width="279.86942"
   height="359.46994"
   viewBox="0 0 74.04878 95.109749"
   version="1.1"
   id="svg1"
   inkscape:version="1.3.2 (091e20e, 2023-11-25, custom)"
   sodipodi:docname="bumble.svg"
   xml:space="preserve"
   inkscape:export-filename="assets\pelvis.svg"
   inkscape:export-xdpi="96"
   inkscape:export-ydpi="96"
   xmlns:inkscape="http://www.inkscape.org/namespaces/inkscape"
   xmlns:sodipodi="http://sodipodi.sourceforge.net/DTD/sodipodi-0.dtd"
   xmlns="http://www.w3.org/2000/svg"
   xmlns:svg="http://www.w3.org/2000/svg"><sodipodi:namedview
     id="namedview1"
     pagecolor="#ffffff"
     bordercolor="#000000"
     borderopacity="0.25"
     inkscape:showpageshadow="2"
     inkscape:pageopacity="0.0"
     inkscape:pagecheckerboard="true"
     inkscape:deskcolor="#d1d1d1"
     inkscape:document-units="mm"
     inkscape:zoom="1.9723485"
     inkscape:cx="132.83657"
     inkscape:cy="198.74784"
     inkscape:window-width="2245"
     inkscape:window-height="1122"
     inkscape:window-x="2474"
     inkscape:window-y="54"
     inkscape:window-maximized="0"
     inkscape:current-layer="g2" /><defs
     id="defs1"><inkscape:path-effect
       effect="spiro"
       id="path-effect56"
       is_visible="true"
       lpeversion="1" /><inkscape:path-effect
       effect="spiro"
       id="path-effect42"
       is_visible="true"
       lpeversion="1" /><inkscape:path-effect
       effect="spiro"
       id="path-effect41"
       is_visible="true"
       lpeversion="1" /><inkscape:path-effect
       effect="spiro"
       id="path-effect42-2"
       is_visible="true"
       lpeversion="1" /><inkscape:path-effect
       effect="spiro"
       id="path-effect56-8"
       is_visible="true"
       lpeversion="1" /><inkscape:path-effect
       effect="spiro"
       id="path-effect41-4"
       is_visible="true"
       lpeversion="1" /></defs><g
     id="g1"
     inkscape:label="Bumble"
     transform="translate(-0.13414634,-0.13414634)"><g
       id="layer6"
       inkscape:label="Butt"
       transform="matrix(0.66092874,0.58570819,-0.57071336,0.61510686,44.464099,4.4105758)"
       inkscape:transform-center-x="-4.4232527"
       inkscape:transform-center-y="20.886174"
       style="stroke-width:1.16184"><g
         id="g2"
         inkscape:label="Pelvis"><path
           style="display:inline;fill:#fcda06;fill-opacity:1;stroke:none;stroke-width:1.16184;stroke-linecap:round;stroke-linejoin:round;stroke-miterlimit:40;stroke-dasharray:none;stroke-opacity:1;paint-order:markers fill stroke"
           d="m 33.670732,43.262195 c 3.269503,0.509396 6.530316,1.212307 9.589303,2.473945 3.058988,1.261637 5.922822,3.108086 8.050938,5.641908 0.677724,0.806926 1.280329,1.683807 1.716508,2.643071 0.436178,0.959265 0.702911,2.004385 0.698127,3.058149 -0.0082,1.811337 -0.825733,3.557629 -2.017699,4.92153 -1.191965,1.363902 -2.737939,2.376675 -4.35425,3.194323 -4.858287,2.457676 -10.621958,3.241984 -15.862246,1.764653 C 26.251125,65.482443 21.636267,61.653258 19.585365,56.609755 18.892912,54.906901 18.487212,53.067903 18.580263,51.232 c 0.09305,-1.835904 0.706087,-3.668607 1.877054,-5.085659 1.505048,-1.821343 3.820687,-2.833272 6.158622,-3.174622 2.337935,-0.34135 4.720235,-0.07325 7.054793,0.290476 z"
           id="path41"
           inkscape:transform-center-x="-9.2086268"
           inkscape:transform-center-y="10.212803"
           transform="rotate(14.628532,29.82676,52.949599)"
           inkscape:original-d="m 33.670732,43.262195 c 4.315039,-0.961382 11.715445,5.432925 17.640241,8.115853 5.924799,2.682928 1.632114,3.800813 2.414635,5.70122 0.782521,1.900404 -4.292682,5.388211 -6.371949,8.115853 -2.079271,2.727643 -18.445123,-5.768292 -27.768294,-8.585366 -9.32317,-2.817072 0.558943,-6.930893 0.871952,-10.463414 0.313008,-3.532521 8.764226,-1.922764 13.213415,-2.884146 z"
           inkscape:path-effect="#path-effect41" /><g
           id="g47"
           inkscape:label="Stripe 1"
           transform="matrix(0.96466856,0,0,0.971784,-0.73621461,0.24722409)"
           style="stroke-width:1.19998"><path
             style="fill:none;fill-opacity:1;stroke:#000000;stroke-width:1.37133;stroke-linecap:round;stroke-linejoin:round;stroke-miterlimit:40;stroke-dasharray:none;stroke-opacity:1;paint-order:markers fill stroke"
             d="M 36.671889,43.127966 C 29.27131,47.4367 23.211967,54.01341 19.522657,61.741459 c -0.05238,0.109732 -0.104305,0.219687 -0.155756,0.32986"
             id="path42"
             transform="matrix(0.87980151,0,0,0.87029442,6.0354515,8.1829417)"
             sodipodi:nodetypes="csc"
             inkscape:original-d="m 36.671889,43.127966 c -5.231707,5.388213 -12.576398,12.590127 -17.149232,18.613493 -0.107143,0.141129 0.19216,0.363043 -0.155756,0.32986"
             inkscape:path-effect="#path-effect42" /><path
             style="fill:none;fill-opacity:1;stroke:#000000;stroke-width:1.30386;stroke-linecap:round;stroke-linejoin:round;stroke-miterlimit:40;stroke-dasharray:none;stroke-opacity:1;paint-order:markers fill stroke"
             d="m 37.194768,43.182144 c -4.96949,-0.288883 -10.026229,1.711943 -13.452657,5.322882 -3.426427,3.610939 -5.159523,8.765578 -4.610627,13.713102 0.01221,0.110078 0.02549,0.220039 0.03983,0.32986"
             id="path42-5"
             transform="matrix(0.94027397,0,0,0.90082036,8.8281831,9.8332709)"
             sodipodi:nodetypes="csc"
             inkscape:original-d="m 37.194768,43.182144 c -5.231707,5.388213 -13.813201,12.779097 -18.063284,19.035984 -6.114445,9.001563 0.387746,0.363043 0.03983,0.32986"
             inkscape:path-effect="#path-effect42-2" /><path
             style="fill:none;fill-opacity:1;stroke:#000000;stroke-width:4.53589;stroke-linecap:round;stroke-linejoin:round;stroke-miterlimit:40;stroke-dasharray:none;stroke-opacity:1;paint-order:markers fill stroke"
             d="m 98.106395,245.48678 c -1.83347,-2.91174 -5.966527,-5.28137 -8.329093,-7.93223 -1.542733,-1.73098 -1.378626,-1.19185 -1.633483,-5.36642 -0.390047,-6.38899 0.618366,-13.52669 2.844141,-20.13128 2.037418,-6.04568 5.148017,-11.7471 9.17074,-16.80909 1.72569,-2.17151 5.93267,-6.37682 8.15127,-8.14803 9.8185,-7.83859 22.55135,-12.36722 34.78232,-12.37084 l 2.14357,-6.4e-4 3.18003,1.63132 c 3.50617,1.79863 5.1958,2.72803 8.28615,4.55789 l 5.14025,1.22217 -5.45262,0.21559 c -17.56917,0.69466 -33.84725,10.18572 -44.29661,23.31115 -5.35558,6.72713 -9.30517,14.77906 -11.37654,23.19307 -1.126926,4.57763 -1.542982,7.94561 -1.645967,13.32413 l 0.692157,5.93361 z"
             id="path43"
             transform="scale(0.26458333)"
             sodipodi:nodetypes="ssssssscsscsssscs" /><path
             style="fill:none;fill-opacity:1;stroke:#000000;stroke-width:4.53589;stroke-linecap:round;stroke-linejoin:round;stroke-miterlimit:40;stroke-dasharray:none;stroke-opacity:1;paint-order:markers fill stroke"
             d="m 95.507969,240.56877 c -0.871423,-0.82392 -2.393381,-2.354 -3.38213,-3.40017 l -1.797725,-1.90213 -0.103562,-0.95761 c -0.05696,-0.52668 -0.103188,-2.7258 -0.102732,-4.88693 6.45e-4,-3.05781 0.05191,-4.32291 0.231121,-5.70386 0.84534,-6.51384 2.580555,-12.29373 5.345186,-17.80449 2.989031,-5.95804 6.296343,-10.33219 11.439213,-15.12914 8.26537,-7.70942 19.69499,-12.74542 31.52984,-13.89235 0.69714,-0.0676 2.32274,-0.1594 3.61244,-0.20408 l 2.34492,-0.0812 2.79822,1.4504 c 1.53902,0.79772 3.29334,1.72028 3.89849,2.05015 1.03508,0.56423 1.26646,0.83181 0.71927,0.83181 -0.51037,0 -3.85467,0.66898 -6.07068,1.21435 -11.80919,2.90631 -22.85362,9.10945 -31.11646,17.47668 -7.76282,7.8609 -13.30806,17.8125 -16.035564,28.77776 -0.998659,4.01486 -1.515755,7.93319 -1.695825,12.8502 l -0.02962,0.80871 z"
             id="path44"
             transform="scale(0.26458333)" /><path
             style="fill:none;fill-opacity:1;stroke:#000000;stroke-width:4.53589;stroke-linecap:round;stroke-linejoin:round;stroke-miterlimit:40;stroke-dasharray:none;stroke-opacity:1;paint-order:markers fill stroke"
             d="m 93.782691,236.03869 c -1.263715,-1.31538 -1.549214,-1.68303 -1.614698,-2.0793 -0.130174,-0.78773 -0.09299,-7.76305 0.04895,-9.18218 0.963366,-9.632 4.964571,-19.48774 10.902777,-26.85565 4.71655,-5.85212 10.53858,-10.50236 17.29511,-13.81416 6.8085,-3.33728 13.62772,-5.08275 21.23103,-5.43438 l 2.47167,-0.1143 1.23584,0.63157 c 0.67971,0.34736 1.23584,0.66924 1.23584,0.71529 0,0.0461 -0.84132,0.29677 -1.8696,0.55715 -8.37734,2.12133 -17.18006,6.3486 -24.11466,11.5804 -2.80633,2.11725 -4.11337,3.25956 -6.79166,5.93577 -4.39487,4.39144 -7.65748,8.69177 -10.5728,13.93562 -3.922746,7.05596 -6.703959,15.42545 -7.544703,22.70426 -0.112733,0.97599 -0.243888,2.05428 -0.291456,2.39618 l -0.08649,0.62165 z"
             id="path45"
             transform="scale(0.26458333)" /><path
             style="fill:none;fill-opacity:1;stroke:#000000;stroke-width:4.53589;stroke-linecap:round;stroke-linejoin:round;stroke-miterlimit:40;stroke-dasharray:none;stroke-opacity:1;paint-order:markers fill stroke"
             d="m 94.061258,228.66142 c 0.09802,-4.97494 0.629018,-8.45923 1.959369,-12.85702 1.246441,-4.12041 3.241271,-8.58831 5.362613,-12.01086 3.07218,-4.95662 7.2738,-9.52571 12.0602,-13.11497 5.23019,-3.92205 11.55572,-6.93446 17.89855,-8.52381 1.795,-0.44978 4.48025,-0.99739 4.5498,-0.92785 0.0215,0.0215 -0.62865,0.31773 -1.44472,0.65834 -3.41919,1.42711 -8.26479,4.00639 -11.48804,6.11501 -6.30148,4.12237 -12.24565,9.71101 -16.82393,15.81768 -5.47616,7.30428 -9.811929,17.02005 -11.645743,26.09627 -0.212918,1.05381 -0.411515,1.97306 -0.441327,2.04277 -0.02981,0.0697 -0.02386,-1.41329 0.01323,-3.29556 z"
             id="path46"
             transform="scale(0.26458333)" /><path
             style="fill:none;fill-opacity:1;stroke:#000000;stroke-width:4.53591;stroke-linecap:round;stroke-linejoin:round;stroke-miterlimit:40;stroke-dasharray:none;stroke-opacity:1;paint-order:markers fill stroke"
             d="m 102.66207,205.38315 c 0.0751,-0.21527 1.44449,-2.29662 2.13473,-3.24468 1.93392,-2.6563 4.1845,-5.13933 6.72451,-7.41906 0.24996,-0.22435 0.46728,-0.41262 0.48294,-0.41837 0.0157,-0.006 -0.43845,0.45769 -1.00912,1.02986 -3.09735,3.10554 -5.98419,6.57896 -8.05455,9.69118 -0.23997,0.36074 -0.31015,0.45171 -0.27851,0.36107 z"
             id="path47"
             transform="scale(0.26458333)"
             inkscape:label="path47" /></g><g
           id="layer7"
           inkscape:label="Stripe 2"
           style="stroke-width:1.16184"><path
             style="fill:none;fill-opacity:1;stroke:#000000;stroke-width:1.11906;stroke-linecap:round;stroke-linejoin:round;stroke-miterlimit:40;stroke-dasharray:none;stroke-opacity:1;paint-order:markers fill stroke"
             d="m 26.929877,64.390243 c 1.238936,-3.848455 3.719368,-7.286492 6.980774,-9.675801 3.261406,-2.389309 7.28729,-3.717803 11.330201,-3.738833 0.06707,-3.49e-4 0.134148,-3.49e-4 0.201221,0"
             id="path56"
             inkscape:path-effect="#path-effect56"
             inkscape:original-d="m 26.929877,64.390243 c 6.081302,-4.717479 12.162601,-8.697156 18.310975,-13.414634 6.148374,-4.717479 0.145325,-0.01119 0.201221,0"
             sodipodi:nodetypes="csc"
             transform="matrix(0.99760191,-0.15010501,0.16638836,1.0557267,-9.0770385,2.632111)" /><path
             style="fill:none;fill-opacity:1;stroke:#000000;stroke-width:1.11906;stroke-linecap:round;stroke-linejoin:round;stroke-miterlimit:40;stroke-dasharray:none;stroke-opacity:1;paint-order:markers fill stroke"
             d="m 28.575405,61.825173 c 1.434615,-3.194598 3.803819,-5.962769 6.738626,-7.873392 2.934807,-1.910622 6.424935,-2.957002 9.926821,-2.976172 0.06707,-3.67e-4 0.134148,-3.67e-4 0.201221,0"
             id="path56-5"
             inkscape:path-effect="#path-effect56-8"
             inkscape:original-d="m 28.575405,61.825173 c 6.081302,-4.717479 10.517073,-6.132086 16.665447,-10.849564 6.148374,-4.717479 0.145325,-0.01119 0.201221,0"
             sodipodi:nodetypes="csc"
             transform="matrix(0.97576242,-0.25615847,0.26427164,1.0355751,-9.2821275,12.233064)" /><path
             style="fill:none;fill-opacity:1;stroke:#000000;stroke-width:4.11478;stroke-linecap:round;stroke-linejoin:round;stroke-miterlimit:40;stroke-dasharray:none;stroke-opacity:1;paint-order:markers fill stroke"
             d="m 118.76704,254.08833 c -5.77174,-2.14336 -10.23436,-4.34473 -15.11221,-7.45471 -1.62045,-1.03315 -1.67046,-1.07809 -1.49695,-1.345 0.0987,-0.15188 0.4593,-1.07468 0.80127,-2.05067 4.02842,-11.49739 11.64483,-22.36231 21.1315,-30.14442 11.31326,-9.28049 25.04361,-14.70661 39.99039,-15.80386 0.94114,-0.0691 2.42414,-0.12504 3.29557,-0.12432 l 1.5844,0.001 1.73465,1.86799 c 2.61911,2.82043 5.90963,6.87653 7.08645,8.73519 l 0.24083,0.38038 -1.10864,0.15884 c -4.99242,0.7153 -11.06772,2.34255 -15.87532,4.25216 -14.60633,5.80173 -26.43469,15.90479 -34.50563,29.47259 -2.0377,3.4255 -4.27184,8.15547 -5.49307,11.62954 -0.20218,0.57514 -0.42562,1.04372 -0.49653,1.0413 -0.0709,-0.002 -0.87043,-0.27976 -1.77671,-0.61631 z"
             id="path57"
             transform="matrix(0.26981437,-0.04059785,0.04550238,0.2887106,-9.732309,0.1308484)" /><path
             style="fill:none;fill-opacity:1;stroke:#000000;stroke-width:4.11478;stroke-linecap:round;stroke-linejoin:round;stroke-miterlimit:40;stroke-dasharray:none;stroke-opacity:1;paint-order:markers fill stroke"
             d="m 117.18264,251.36447 c -2.85024,-1.16253 -4.36609,-1.85632 -6.68506,-3.05971 -1.99056,-1.03296 -5.20799,-2.90206 -5.7473,-3.33877 l -0.26324,-0.21316 0.64325,-1.72692 c 1.82522,-4.90013 3.92655,-9.01147 6.92067,-13.5406 2.75742,-4.17108 5.25003,-7.22593 8.74024,-10.71174 11.73702,-11.72222 27.66507,-18.6989 44.72258,-19.58904 l 2.51013,-0.13099 0.86291,0.92454 c 2.01381,2.15767 5.58792,6.42103 5.58792,6.66553 0,0.065 -0.43901,0.18905 -0.97558,0.27561 -1.59344,0.25705 -6.65524,1.57472 -9.03235,2.35127 -8.84874,2.8907 -16.77647,7.27269 -23.96875,13.24855 -1.9838,1.64827 -7.03303,6.68786 -8.63054,8.61405 -4.89804,5.9058 -8.66677,12.09611 -11.49806,18.88611 -0.4806,1.15258 -0.95066,2.1038 -1.04712,2.11901 -0.0963,0.0152 -1.05914,-0.33301 -2.1397,-0.77374 z"
             id="path58"
             transform="matrix(0.26981437,-0.04059785,0.04550238,0.2887106,-9.732309,0.1308484)" /><path
             style="fill:none;fill-opacity:1;stroke:#000000;stroke-width:4.11478;stroke-linecap:round;stroke-linejoin:round;stroke-miterlimit:40;stroke-dasharray:none;stroke-opacity:1;paint-order:markers fill stroke"
             d="m 115.91511,248.70127 c -2.60493,-1.14495 -4.43891,-2.06742 -7.01349,-3.52769 -1.831,-1.03851 -2.00029,-1.16403 -1.93279,-1.43296 0.16502,-0.65752 1.79011,-4.39088 2.72078,-6.25054 5.58991,-11.16972 14.22306,-20.54777 24.73136,-26.86525 9.15649,-5.50478 19.49574,-8.71588 30.36056,-9.42918 l 2.37665,-0.15603 0.72657,0.77301 c 0.98615,1.04916 3.04093,3.45965 3.04093,3.56735 0,0.0479 -0.751,0.2777 -1.6689,0.51065 -4.34515,1.10275 -7.40042,2.10596 -11.09841,3.64423 -6.6099,2.74953 -13.13209,6.68617 -18.6673,11.26714 -1.5831,1.31018 -7.30674,6.97524 -8.83714,8.74668 -2.50525,2.89985 -5.4583,7.06793 -7.63325,10.77396 -1.17602,2.00391 -3.39009,6.37934 -4.12098,8.14385 -0.33513,0.80909 -0.54879,1.1696 -0.68941,1.16324 -0.11207,-0.005 -1.1449,-0.42287 -2.29518,-0.92846 z"
             id="path59"
             transform="matrix(0.26981437,-0.04059785,0.04550238,0.2887106,-9.732309,0.1308484)" /><path
             style="fill:none;fill-opacity:1;stroke:#000000;stroke-width:4.11478;stroke-linecap:round;stroke-linejoin:round;stroke-miterlimit:40;stroke-dasharray:none;stroke-opacity:1;paint-order:markers fill stroke"
             d="m 115.78836,246.48761 c -2.25614,-1.03817 -6.05728,-3.00978 -6.37544,-3.30686 -0.22703,-0.21199 2.52927,-5.96731 4.21132,-8.79352 4.14354,-6.96201 9.57456,-13.10879 15.99174,-18.09929 5.10697,-3.97158 12.02419,-7.65728 18.3675,-9.78675 5.47603,-1.83832 11.0716,-2.94411 16.96162,-3.35193 l 1.43445,-0.0993 0.55284,0.6471 0.55284,0.64711 -0.90989,0.22866 c -1.65895,0.41691 -6.8362,2.18481 -8.8953,3.03751 -6.813,2.82139 -14.06318,7.18766 -19.51676,11.75357 -2.2355,1.87164 -8.47658,8.20995 -10.15336,10.31154 -3.91515,4.90706 -6.69523,9.29936 -9.36963,14.80327 -0.69714,1.4347 -1.32456,2.61143 -1.39428,2.61494 -0.0697,0.004 -0.72565,-0.26921 -1.45765,-0.60604 z"
             id="path60"
             transform="matrix(0.26981437,-0.04059785,0.04550238,0.2887106,-9.732309,0.1308484)" /><path
             style="fill:none;fill-opacity:1;stroke:#000000;stroke-width:4.11478;stroke-linecap:round;stroke-linejoin:round;stroke-miterlimit:40;stroke-dasharray:none;stroke-opacity:1;paint-order:markers fill stroke"
             d="m 114.04551,243.45421 c -1.20256,-0.60507 -2.18647,-1.16187 -2.18647,-1.23733 0,-0.21378 2.28809,-4.7905 3.10154,-6.20382 3.80622,-6.61304 9.16316,-12.80719 15.36957,-17.77161 4.91301,-3.92986 11.91065,-7.71425 18.16034,-9.82131 1.81928,-0.61336 5.01016,-1.52945 5.92524,-1.70112 0.28284,-0.0531 -0.77773,0.54827 -2.63061,1.49153 -5.39647,2.74723 -9.96502,5.66519 -14.09152,9.00031 -2.32359,1.87798 -8.40964,7.92808 -10.72343,10.66008 -3.32186,3.92229 -6.76301,9.19055 -9.35446,14.3213 -0.66021,1.30713 -1.24164,2.37334 -1.29205,2.36935 -0.0504,-0.004 -1.07558,-0.50231 -2.27815,-1.10738 z"
             id="path61"
             transform="matrix(0.26981437,-0.04059785,0.04550238,0.2887106,-9.732309,0.1308484)" /><path
             style="fill:none;fill-opacity:1;stroke:#000000;stroke-width:4.11478;stroke-linecap:round;stroke-linejoin:round;stroke-miterlimit:40;stroke-dasharray:none;stroke-opacity:1;paint-order:markers fill stroke"
             d="m 114.93609,241.75459 c -0.32659,-0.16308 -0.59379,-0.31263 -0.59379,-0.33233 0,-0.0565 1.47765,-2.98101 1.90629,-3.77282 1.07255,-1.98129 2.84367,-4.69421 4.40446,-6.74655 3.68492,-4.84545 8.33158,-9.41882 12.87652,-12.67341 0.21334,-0.15277 0.40086,-0.27777 0.41671,-0.27777 0.0159,0 -0.21919,0.23585 -0.52233,0.52412 -1.84016,1.74988 -5.46339,5.4288 -6.89857,7.00459 -3.49783,3.84054 -7.30591,9.47325 -10.30097,15.23668 -0.35224,0.67781 -0.65261,1.25524 -0.66749,1.28318 -0.0177,0.0333 -0.23165,-0.0514 -0.62083,-0.24569 z"
             id="path62"
             transform="matrix(0.26981437,-0.04059785,0.04550238,0.2887106,-9.732309,0.1308484)" /></g><path
           style="display:inline;fill:#ffffff;fill-opacity:0.390805;stroke:none;stroke-width:0.232369;stroke-linecap:round;stroke-linejoin:round;stroke-miterlimit:40;stroke-dasharray:none;stroke-opacity:1;paint-order:markers fill stroke"
           d="m 37.307064,47.409588 1.850649,3.578055 c 0,0 4.121276,1.593773 5.932027,3.087629 1.273194,1.050375 2.325273,2.535067 3.319881,4.008901 0.617961,0.915708 1.622657,2.970241 1.622657,2.970241 0,0 -0.658938,-2.865477 -1.294368,-4.114737 -0.928492,-1.825425 -2.241313,-3.326401 -3.560735,-4.706351 -1.347362,-1.409173 -2.813087,-2.682051 -4.384602,-3.582675 -1.111122,-0.636775 -3.485509,-1.241063 -3.485509,-1.241063 z"
           id="path17-9"
           sodipodi:nodetypes="ccaacaaac" /><path
           style="display:inline;fill:#000000;fill-opacity:0.208812;stroke:none;stroke-width:0.232369;stroke-linecap:round;stroke-linejoin:round;stroke-miterlimit:40;stroke-dasharray:none;stroke-opacity:1;paint-order:markers fill stroke"
           d="m 18.994488,53.266615 4.401071,5.708611 c 0,0 5.25099,4.820063 8.279994,6.528745 2.368763,1.336236 4.856007,2.213505 7.569416,2.816998 1.502888,0.334259 4.25244,0.608194 4.25244,0.608194 0,0 -3.602755,0.71931 -5.423775,0.5824 C 35.216095,69.296724 32.298598,68.64931 29.688497,67.327358 26.939975,65.9353 24.560077,64.08965 22.380732,61.45411 21.169878,59.989792 19.040586,53.523813 18.994488,53.266615 Z"
           id="path17-9-2"
           sodipodi:nodetypes="ccascaasc" /><path
           style="display:inline;fill:none;fill-opacity:1;stroke:#000000;stroke-width:1.16184;stroke-linecap:round;stroke-linejoin:round;stroke-miterlimit:40;stroke-dasharray:none;stroke-opacity:1;paint-order:markers fill stroke"
           d="m 33.670732,43.262195 c 3.269503,0.509396 6.530316,1.212307 9.589303,2.473945 3.058988,1.261637 5.922822,3.108086 8.050938,5.641908 0.677724,0.806926 1.280329,1.683807 1.716508,2.643071 0.436178,0.959265 0.702911,2.004385 0.698127,3.058149 -0.0082,1.811337 -0.825733,3.557629 -2.017699,4.92153 -1.191965,1.363902 -2.737939,2.376675 -4.35425,3.194323 -4.858287,2.457676 -10.621958,3.241984 -15.862246,1.764653 C 26.251125,65.482443 21.636267,61.653258 19.585365,56.609755 18.892912,54.906901 18.487212,53.067903 18.580263,51.232 c 0.09305,-1.835904 0.706087,-3.668607 1.877054,-5.085659 1.505048,-1.821343 3.820687,-2.833272 6.158622,-3.174622 2.337935,-0.34135 4.720235,-0.07325 7.054793,0.290476 z"
           id="path41-5"
           inkscape:transform-center-x="-9.2086268"
           inkscape:transform-center-y="10.212803"
           transform="rotate(14.628532,29.647057,53.439707)"
           inkscape:original-d="m 33.670732,43.262195 c 4.315039,-0.961382 11.715445,5.432925 17.640241,8.115853 5.924799,2.682928 1.632114,3.800813 2.414635,5.70122 0.782521,1.900404 -4.292682,5.388211 -6.371949,8.115853 -2.079271,2.727643 -18.445123,-5.768292 -27.768294,-8.585366 -9.32317,-2.817072 0.558943,-6.930893 0.871952,-10.463414 0.313008,-3.532521 8.764226,-1.922764 13.213415,-2.884146 z"
           inkscape:path-effect="#path-effect41-4" /></g></g></g></svg>
