<?xml version="1.0" encoding="UTF-8" standalone="no"?>
<!-- Created with Inkscape (http://www.inkscape.org/) -->

<svg
   width="279.86942"
   height="359.46994"
   viewBox="0 0 74.04878 95.109749"
   version="1.1"
   id="svg1"
   inkscape:version="1.3.2 (091e20e, 2023-11-25, custom)"
   sodipodi:docname="bumble.svg"
   xml:space="preserve"
   inkscape:export-filename="assets\torso.svg"
   inkscape:export-xdpi="96"
   inkscape:export-ydpi="96"
   xmlns:inkscape="http://www.inkscape.org/namespaces/inkscape"
   xmlns:sodipodi="http://sodipodi.sourceforge.net/DTD/sodipodi-0.dtd"
   xmlns="http://www.w3.org/2000/svg"
   xmlns:svg="http://www.w3.org/2000/svg"><sodipodi:namedview
     id="namedview1"
     pagecolor="#ffffff"
     bordercolor="#000000"
     borderopacity="0.25"
     inkscape:showpageshadow="2"
     inkscape:pageopacity="0.0"
     inkscape:pagecheckerboard="true"
     inkscape:deskcolor="#d1d1d1"
     inkscape:document-units="mm"
     inkscape:zoom="1.9723485"
     inkscape:cx="132.58306"
     inkscape:cy="198.74784"
     inkscape:window-width="2245"
     inkscape:window-height="1122"
     inkscape:window-x="2474"
     inkscape:window-y="54"
     inkscape:window-maximized="0"
     inkscape:current-layer="g1" /><defs
     id="defs1"><inkscape:path-effect
       effect="powerstroke"
       id="path-effect33"
       is_visible="true"
       lpeversion="1.3"
       scale_width="1"
       interpolator_type="CentripetalCatmullRom"
       interpolator_beta="0.2"
       start_linecap_type="zerowidth"
       end_linecap_type="round"
       offset_points="0.28371672,0.065179246 | 2.5,0.37500051 | 3.7981784,0.37477729"
       linejoin_type="round"
       miter_limit="4"
       not_jump="false"
       sort_points="true"
       message="&lt;b&gt;Ctrl + click&lt;/b&gt; on existing node and move it" /><inkscape:path-effect
       effect="spiro"
       id="path-effect32"
       is_visible="true"
       lpeversion="1" /><inkscape:path-effect
       effect="powerstroke"
       id="path-effect31"
       is_visible="true"
       lpeversion="1.3"
       scale_width="1"
       interpolator_type="CentripetalCatmullRom"
       interpolator_beta="0.2"
       start_linecap_type="zerowidth"
       end_linecap_type="zerowidth"
       offset_points="0.50853678,0.11070473 | 2.5,0.37500051 | 3.7029031,0.13331321"
       linejoin_type="round"
       miter_limit="4"
       not_jump="false"
       sort_points="true"
       message="&lt;b&gt;Ctrl + click&lt;/b&gt; on existing node and move it" /><inkscape:path-effect
       effect="spiro"
       id="path-effect30"
       is_visible="true"
       lpeversion="1" /><inkscape:path-effect
       effect="powerstroke"
       id="path-effect29"
       is_visible="true"
       lpeversion="1.3"
       scale_width="1"
       interpolator_type="CentripetalCatmullRom"
       interpolator_beta="0.2"
       start_linecap_type="butt"
       end_linecap_type="zerowidth"
       offset_points="0.2,0.37500051 | 2,0.37500051 | 3.6537915,0.12290171"
       linejoin_type="round"
       miter_limit="4"
       not_jump="false"
       sort_points="true"
       message="&lt;b&gt;Ctrl + click&lt;/b&gt; on existing node and move it" /><inkscape:path-effect
       effect="spiro"
       id="path-effect28"
       is_visible="true"
       lpeversion="1" /><inkscape:path-effect
       effect="spiro"
       id="path-effect27"
       is_visible="true"
       lpeversion="1" /><inkscape:path-effect
       effect="spiro"
       id="path-effect26"
       is_visible="true"
       lpeversion="1" /><inkscape:path-effect
       effect="spiro"
       id="path-effect24"
       is_visible="true"
       lpeversion="1" /></defs><g
     id="g1"
     inkscape:label="Bumble"
     transform="translate(-0.13414634,-0.13414634)"><g
       id="layer4"
       inkscape:label="Right Arm"
       transform="matrix(0.91095382,-0.0679009,0.07486179,0.92081023,9.2950168,8.2732791)"
       inkscape:transform-center-x="1.0310728"
       inkscape:transform-center-y="11.527471"
       style="stroke-width:1.08857"><path
         style="fill:#fcda06;fill-opacity:1;stroke:#000000;stroke-width:1.37008;stroke-linecap:round;stroke-linejoin:round;stroke-miterlimit:40;stroke-dasharray:none;stroke-opacity:1;paint-order:markers fill stroke"
         d="m 39.934287,52.64496 c 0.153323,-0.766616 0.110427,-1.571648 -0.123495,-2.31763 -0.233922,-0.745982 -0.658383,-1.431364 -1.221995,-1.973167 -0.563612,-0.541803 -1.265203,-0.9389 -2.019831,-1.143216 -0.754628,-0.204316 -1.560725,-0.215426 -2.320697,-0.03198 -0.759973,0.183442 -1.47224,0.561054 -2.05057,1.087118 -0.578329,0.526065 -1.021517,1.199489 -1.275909,1.938741 -0.254391,0.739252 -0.319457,1.542796 -0.187319,2.313346 0.132139,0.770551 0.461205,1.506507 0.947361,2.118766 0.496964,0.625871 1.15713,1.120995 1.897116,1.422836"
         id="path23"
         inkscape:path-effect="#path-effect24"
         inkscape:original-d="m 39.934287,52.64496 c -2.561108,0.600755 -5.501637,1.296363 -8.252455,1.991974 -2.750817,0.695608 1.327981,0.948558 1.897116,1.422836"
         transform="matrix(0.18931589,0.78103206,-0.75621324,0.21471795,50.805228,-7.1136592)" /><path
         style="fill:#fcda06;fill-opacity:1;stroke:#000000;stroke-width:1.08857;stroke-linecap:round;stroke-linejoin:round;stroke-miterlimit:40;stroke-dasharray:none;stroke-opacity:1;paint-order:markers fill stroke"
         d="m 14.831039,31.134726 c 0,0 -4.9641945,4.324165 -6.4224108,7.18701 -0.5432505,1.066537 -0.9652176,2.330669 -0.7588462,3.509666 0.6368143,3.638112 5.881058,9.390722 5.881058,9.390722 l 3.035386,-2.655962 c 0,0 -4.92326,-5.225446 -4.268511,-8.252452 0.566607,-2.619515 6.31506,-4.976559 6.31506,-4.976559"
         id="path25"
         sodipodi:nodetypes="caaccac" /><path
         style="fill:#ffffff;fill-opacity:1;stroke:#000000;stroke-width:0.870853;stroke-linecap:round;stroke-linejoin:round;stroke-miterlimit:40;stroke-dasharray:none;stroke-opacity:1;paint-order:markers fill stroke"
         d="m 14.890244,50.875001 c -0.17576,0.14203 -0.306589,0.338851 -0.369506,0.555888 -0.06292,0.217038 -0.05764,0.453315 0.01491,0.667327 0.07255,0.214011 0.212034,0.404794 0.393961,0.538833 0.181926,0.13404 0.405472,0.210734 0.631369,0.216609 0.191627,0.005 0.382078,-0.03979 0.560751,-0.109222 0.178674,-0.06944 0.346781,-0.163197 0.51242,-0.259681 1.315754,-0.766423 2.552191,-1.767085 3.253049,-3.118903 0.08334,-0.160739 0.159127,-0.32695 0.201219,-0.503047 0.05224,-0.218553 0.05071,-0.450541 -0.01054,-0.666742 -0.06125,-0.216201 -0.182788,-0.415866 -0.350947,-0.564918 -0.16816,-0.149053 -0.382879,-0.246224 -0.606533,-0.267975 -0.223655,-0.02175 -0.455037,0.03313 -0.64174,0.158171 -0.211873,0.141903 -0.355991,0.361795 -0.503049,0.570123 -0.805405,1.140966 -1.867795,2.099428 -3.085365,2.783537 z"
         id="path26"
         inkscape:path-effect="#path-effect26"
         inkscape:original-d="m 14.890244,50.875001 c -0.245936,0.950201 0.301829,1.408536 0.670731,1.978657 0.368903,0.570122 0.961382,-0.290652 1.073171,-0.368903 0.111788,-0.07825 2.044803,-1.822155 3.253049,-3.118903 1.134117,-1.217188 0.05589,-0.335365 0.201219,-0.503047 0.145325,-0.167685 -1.095528,-0.905489 -1.609756,-1.341464 -0.514228,-0.435975 -0.29065,0.413616 -0.503049,0.570123 -0.212398,0.156503 -0.693089,0.491869 -3.085365,2.783537 z"
         transform="translate(-2.0457317,0.20121949)"
         sodipodi:nodetypes="cssssssc" /><path
         style="fill:none;fill-opacity:1;stroke:#000000;stroke-width:0.993691;stroke-linecap:round;stroke-linejoin:round;stroke-miterlimit:40;stroke-dasharray:none;stroke-opacity:1;paint-order:markers fill stroke"
         d="m 18.981707,48.762194 c 0.378565,-0.428558 0.887797,-0.740109 1.441716,-0.88205 0.553919,-0.141941 1.150227,-0.113684 1.688241,0.08 0.538014,0.193685 1.015503,0.551995 1.351847,1.01443 0.336343,0.462435 0.530145,1.027079 0.548684,1.598594 0.02622,0.808199 -0.307393,1.621475 -0.893611,2.17845"
         id="path27"
         inkscape:path-effect="#path-effect27"
         inkscape:original-d="m 18.981707,48.762194 c 1.721545,0.648375 3.443089,1.162601 5.030488,1.810975 1.587398,0.648375 -0.960681,1.954872 -0.893611,2.17845"
         transform="matrix(0.83782043,0,0,0.80571533,2.2344459,9.5447412)"
         sodipodi:nodetypes="csc" /><path
         style="fill:#000000;fill-opacity:1;fill-rule:nonzero;stroke:none;stroke-width:0.816426;stroke-linecap:round;stroke-linejoin:round;stroke-miterlimit:40;stroke-dasharray:none;stroke-opacity:1;paint-order:markers fill stroke"
         d="m 14.325805,52.726861 c -0.02636,0.102645 -0.09031,0.36234 -0.122545,0.705468 -0.02303,0.245088 -0.04373,0.618596 0.01055,1.071008 0.06261,0.521888 0.222045,1.118 0.547572,1.700958 0.296151,0.530352 0.698897,0.99296 1.16902,1.358744 0.540139,0.42026 1.107533,0.665759 1.605785,0.781989 0.730401,0.178263 1.487668,0.133168 2.167401,-0.07099 0.923581,-0.277403 1.499383,-0.777005 1.793363,-1.060622 -0.352244,0.233039 -1.000497,0.551371 -1.878773,0.633575 -0.645757,0.06044 -1.284328,-0.0195 -1.873877,-0.222508 -0.401503,-0.143689 -0.855452,-0.362613 -1.299097,-0.716046 -0.38542,-0.307048 -0.719679,-0.682446 -0.971566,-1.111142 -0.277106,-0.471617 -0.426968,-0.960116 -0.49357,-1.397181 -0.05755,-0.37769 -0.04941,-0.692017 -0.0301,-0.897622 0.02699,-0.287259 0.08045,-0.504109 0.102271,-0.58911 z"
         id="path28"
         inkscape:path-effect="#path-effect28;#path-effect29"
         inkscape:original-d="m 14.689024,52.82012 c 0.939025,1.66565 1.978659,3.498984 2.95122,5.164634 0.97256,1.66565 2.246951,-0.469512 3.856707,-0.771341"
         sodipodi:nodetypes="csc"
         transform="translate(-0.83841458,0.26829268)" /><path
         style="fill:#000000;fill-opacity:1;fill-rule:nonzero;stroke:none;stroke-width:0.816426;stroke-linecap:round;stroke-linejoin:round;stroke-miterlimit:40;stroke-dasharray:none;stroke-opacity:1;paint-order:markers fill stroke"
         d="m 18.009146,55.838415 c 0.01506,0.151902 0.04835,0.474366 0.20972,0.849974 0.08907,0.207307 0.226829,0.475132 0.445453,0.748924 0.361177,0.452319 0.8789,0.836838 1.498637,1.029379 0.330129,0.102564 0.650396,0.137932 0.930133,0.125688 0.338923,-0.01484 0.643481,-0.101593 0.907376,-0.222226 0.389622,-0.178105 0.730935,-0.449721 1.031353,-0.740908 0.115857,-0.112298 0.233853,-0.240196 0.347001,-0.386779 0.07672,-0.162781 0.134754,-0.281174 0.163863,-0.36442 -0.06159,0.05289 -0.165174,0.153551 -0.305649,0.239238 -0.123664,0.121684 -0.250853,0.223095 -0.373621,0.30525 -0.326545,0.218523 -0.691822,0.321588 -1.040975,0.371654 -0.230933,0.03311 -0.488879,0.04761 -0.74878,0.04844 -0.220202,7.04e-4 -0.46841,-0.0096 -0.737819,-0.05882 -0.506134,-0.09239 -0.985748,-0.306046 -1.384044,-0.628112 -0.239904,-0.19399 -0.417057,-0.40097 -0.539248,-0.574591 -0.221761,-0.315098 -0.347523,-0.592402 -0.4034,-0.742688 z"
         id="path29"
         inkscape:path-effect="#path-effect30;#path-effect31"
         inkscape:original-d="m 18.009146,55.838415 c 1.76626,0.491868 3.498984,0.883129 5.29878,1.341461 1.799797,0.458335 0.178862,-0.178861 0.234756,-0.301829"
         transform="rotate(-19.40741,18.577398,58.859167)" /><path
         style="fill:#000000;fill-opacity:1;fill-rule:nonzero;stroke:none;stroke-width:0.816426;stroke-linecap:round;stroke-linejoin:round;stroke-miterlimit:40;stroke-dasharray:none;stroke-opacity:1;paint-order:markers fill stroke"
         d="m 20.222561,54.262194 c -0.02992,0.08123 -0.106468,0.281397 -0.132697,0.560391 -0.01086,0.115524 -0.0167,0.268218 -0.0013,0.44718 0.02502,0.290027 0.106459,0.648239 0.303856,1.007431 0.167011,0.303898 0.405828,0.587191 0.708443,0.818913 0.299392,0.229254 0.642545,0.393514 1.002006,0.479671 0.412161,0.09879 0.805704,0.08669 1.132877,0.02259 0.399928,-0.07836 0.756071,-0.243501 1.049531,-0.45863 0.320154,-0.234698 0.574182,-0.534258 0.760417,-0.857589 0.112277,-0.19493 0.2041,-0.405655 0.271435,-0.626984 0.04269,-0.140326 0.07705,-0.292579 0.09777,-0.454752 0.06013,-0.470646 -0.0069,-0.945651 -0.172311,-1.37452 -0.224466,-0.582131 -0.574142,-0.94534 -0.795115,-1.134371 a 0.37477729,0.37477729 90 0 0 -0.487246,0.569582 c 0.15711,0.134399 0.415829,0.400877 0.583023,0.834456 0.123728,0.320858 0.17149,0.670784 0.128161,1.009859 -0.015,0.117387 -0.03999,0.228427 -0.07138,0.331556 -0.04959,0.162945 -0.120511,0.317255 -0.207361,0.459316 -0.144331,0.236082 -0.337944,0.446994 -0.567284,0.613363 -0.209489,0.151969 -0.465508,0.278582 -0.756165,0.357433 -0.238357,0.06466 -0.529905,0.104984 -0.848121,0.0688 -0.278021,-0.03161 -0.563118,-0.121005 -0.831677,-0.271394 -0.271103,-0.151813 -0.504796,-0.354342 -0.68641,-0.588524 -0.21592,-0.278418 -0.341575,-0.578937 -0.410542,-0.840845 -0.04226,-0.160476 -0.06225,-0.301984 -0.07229,-0.412049 -0.02416,-0.264785 -0.0086,-0.473303 0.0023,-0.560884 z"
         id="path31"
         inkscape:path-effect="#path-effect32;#path-effect33"
         inkscape:original-d="m 20.222561,54.262194 c 1.900406,0.424796 4.813121,1.306929 4.820633,0.890721 0.0087,-0.484641 -1.317247,-2.1976 -0.839305,-2.176603"
         transform="rotate(-23.329937,19.202735,57.186244)"
         sodipodi:nodetypes="csc" /><path
         style="fill:#ffffff;fill-opacity:1;stroke:#000000;stroke-width:0.205713;stroke-linecap:round;stroke-linejoin:round;stroke-miterlimit:40;stroke-dasharray:none;stroke-opacity:1;paint-order:markers fill stroke"
         d="m 69.9326,218.38733 c -3.569718,-0.64131 -6.698193,-2.32834 -9.209973,-4.96646 -2.757454,-2.89615 -4.064283,-6.16402 -4.064283,-10.16321 0,-1.76352 0.08155,-2.18307 0.50701,-2.60854 0.278855,-0.27885 0.62768,-0.50701 0.775166,-0.50701 0.474214,0 4.993273,-2.95868 6.904863,-4.5207 2.254281,-1.84204 4.396511,-4.12496 5.773528,-6.15271 1.143617,-1.68405 2.257468,-3.93521 2.26127,-4.57017 0.0033,-0.55523 1.551298,-1.70419 3.077178,-2.28398 2.637262,-1.00208 5.492979,-0.41555 7.671695,1.57568 2.980194,2.72373 3.240624,6.58858 0.654826,9.71775 -1.495133,1.80932 -1.218496,3.19208 0.638615,3.19208 0.682042,0 1.02634,-0.20671 1.747391,-1.0491 0.854241,-0.99799 0.926211,-1.03057 1.477406,-0.66877 4.43897,2.91364 4.755078,9.08375 0.638212,12.45722 -2.685028,2.20017 -5.768459,2.6658 -8.737356,1.31942 -1.861029,-0.84397 -3.5989,-2.57571 -4.536209,-4.52019 l -0.640004,-1.32771 0.112406,1.18119 c 0.3626,3.8103 4.203357,7.34638 8.447119,7.77704 l 1.746185,0.17721 -1.143434,0.68101 c -5.428061,3.23288 -11.277657,2.89527 -15.381765,-0.88777 -1.378624,-1.27077 -1.455802,-0.71479 -0.142748,1.02834 1.765683,2.34401 4.457025,4.15148 6.746925,4.53116 0.708903,0.11754 0.874616,0.22124 0.599542,0.37518 -0.594306,0.33259 -4.480207,0.47235 -5.923565,0.21304 z"
         id="path33"
         transform="matrix(0.26458333,0,0,0.26458333,-0.83841458,0.26829268)" /></g></g></svg>
