<?xml version="1.0" encoding="UTF-8" standalone="no"?>
<!-- Created with Inkscape (http://www.inkscape.org/) -->

<svg
   width="279.86942"
   height="359.46994"
   viewBox="0 0 74.04878 95.109749"
   version="1.1"
   id="svg1"
   inkscape:version="1.3.2 (091e20e, 2023-11-25, custom)"
   sodipodi:docname="bumble.svg"
   xml:space="preserve"
   inkscape:export-filename="assets\stinger.svg"
   inkscape:export-xdpi="96"
   inkscape:export-ydpi="96"
   xmlns:inkscape="http://www.inkscape.org/namespaces/inkscape"
   xmlns:sodipodi="http://sodipodi.sourceforge.net/DTD/sodipodi-0.dtd"
   xmlns="http://www.w3.org/2000/svg"
   xmlns:svg="http://www.w3.org/2000/svg"><sodipodi:namedview
     id="namedview1"
     pagecolor="#ffffff"
     bordercolor="#000000"
     borderopacity="0.25"
     inkscape:showpageshadow="2"
     inkscape:pageopacity="0.0"
     inkscape:pagecheckerboard="true"
     inkscape:deskcolor="#d1d1d1"
     inkscape:document-units="mm"
     inkscape:zoom="1.9723485"
     inkscape:cx="132.58306"
     inkscape:cy="198.74784"
     inkscape:window-width="2245"
     inkscape:window-height="1122"
     inkscape:window-x="2474"
     inkscape:window-y="54"
     inkscape:window-maximized="0"
     inkscape:current-layer="g1" /><defs
     id="defs1"><inkscape:path-effect
       effect="spiro"
       id="path-effect63"
       is_visible="true"
       lpeversion="1" /></defs><g
     id="g1"
     inkscape:label="Bumble"
     transform="translate(-0.13414634,-0.13414634)"><g
       id="layer6"
       inkscape:label="Butt"
       transform="matrix(0.66092874,0.58570819,-0.57071336,0.61510686,44.464099,4.4105758)"
       inkscape:transform-center-x="-4.4232527"
       inkscape:transform-center-y="20.886174"
       style="stroke-width:1.16184"><g
         id="g63"
         inkscape:label="Stinger"
         transform="translate(-0.43965532,-0.11927727)"
         style="stroke:none;stroke-width:1.16184"><path
           style="display:inline;fill:#000000;fill-opacity:1;stroke:none;stroke-width:0.821554;stroke-linecap:round;stroke-linejoin:round;stroke-miterlimit:40;stroke-dasharray:none;stroke-opacity:1;paint-order:markers fill stroke"
           d="m -21.473249,36.372597 c 3.360063,0.804175 6.408106,2.887348 8.328079,5.759704 1.919972,2.872356 2.678811,6.510086 2.008651,9.899423 -0.125202,0.633208 -0.305258,1.272523 -0.68465,1.794719 -0.392309,0.539974 -0.977792,0.920118 -1.606505,1.144166 -0.628713,0.224049 -1.301242,0.300737 -1.968509,0.31601 -1.9111,0.04374 -3.826066,-0.411006 -5.534494,-1.268613 -1.708428,-0.857607 -3.20986,-2.113398 -4.392525,-3.615237 -2.365329,-3.003678 -3.401276,-6.944928 -3.167842,-10.760996 0.02966,-0.484911 0.07929,-0.971735 0.212632,-1.438894 0.133345,-0.467159 0.354623,-0.916638 0.692487,-1.265732 0.274918,-0.284056 0.620155,-0.494668 0.987777,-0.640001 0.367622,-0.145333 0.758032,-0.22754 1.150939,-0.271031 0.785814,-0.08698 1.581323,-0.03676 2.366236,0.05801 0.540837,0.0653 1.077921,0.16167 1.607724,0.28847 z"
           id="path63"
           inkscape:path-effect="#path-effect63"
           inkscape:original-d="m -21.473249,36.372597 c 1.464344,0.262744 10.579092,14.32728 10.33673,15.659127 -0.170355,0.936148 -0.298877,1.046222 -0.68465,1.794719 -0.411621,0.798646 -2.17566,0.907261 -3.575014,1.460176 -1.399355,0.552918 -8.747714,-10.037054 -13.094861,-15.644846 -4.347147,-5.607795 0.850779,-2.1639 0.905119,-2.704626 0.05435,-0.540724 2.947764,-1.132422 4.504952,-0.85302 z"
           transform="matrix(-0.10522178,-0.83274824,0.68027002,-0.06699059,16.811486,50.856027)"
           sodipodi:nodetypes="ssssssss" /><path
           style="display:inline;fill:#ffffff;fill-opacity:0.561303;stroke:none;stroke-width:0.232369;stroke-linecap:round;stroke-linejoin:round;stroke-miterlimit:40;stroke-dasharray:none;stroke-opacity:1;paint-order:markers fill stroke"
           d="m 49.675466,57.810203 0.951576,0.587163 c 0,0 1.55126,-0.526498 2.358225,-0.515334 0.527207,0.0073 1.084447,0.102913 1.550345,0.37944 0.282619,0.167744 0.685636,0.734968 0.685636,0.734968 0,0 -0.358083,-0.820641 -0.678765,-1.093732 -0.466004,-0.396846 -1.097524,-0.656575 -1.667056,-0.670261 -0.715582,-0.01719 -1.208793,0.04876 -1.799974,0.161968 -0.477904,0.09152 -1.399987,0.415789 -1.399987,0.415788 z"
           id="path17-9-0"
           sodipodi:nodetypes="ccaacasac" /><path
           style="fill:#fcda06;fill-opacity:1;stroke:none;stroke-width:0.577252;stroke-linecap:round;stroke-linejoin:round;stroke-miterlimit:40;stroke-dasharray:none;stroke-opacity:1;paint-order:markers fill stroke"
           d="m 54.462554,57.075859 c 0,0 -3.212955,-0.302059 -5.111517,1.268641 -1.898565,1.570699 -1.606478,3.020576 -1.606478,3.866337 0,0.845761 7.841071,4.64173 20.957224,5.134975 1.606478,0.06041 8.105407,-0.120824 8.105407,-0.120824 0,0 -9.638862,-1.993581 -14.604336,-4.953744 -4.965474,-2.960163 -7.7403,-5.195388 -7.7403,-5.195388 z"
           id="path64"
           transform="matrix(0.93669788,-0.14094104,0.19094177,1.211517,-7.8783112,-0.62088789)"
           sodipodi:nodetypes="cssscscc" /><path
           style="display:inline;fill:#ffffff;fill-opacity:0.421456;stroke:none;stroke-width:0.23237;stroke-linecap:round;stroke-linejoin:round;stroke-miterlimit:40;stroke-dasharray:none;stroke-opacity:1;paint-order:markers fill stroke"
           d="m 50.210319,63.26669 5.352168,0.265621 c 0,0 4.365476,2.491791 6.641124,3.482051 1.923905,0.837198 3.88635,1.612808 5.900696,2.067111 1.57115,0.354347 4.769919,0.501473 4.769919,0.501473 0,0 -3.547178,0.322335 -5.324717,0.167973 -2.41728,-0.209884 -4.837116,-0.712182 -7.179478,-1.480499 -2.061187,-0.676094 -3.502972,-1.687337 -5.980221,-2.73105 -1.203799,-0.507183 -4.179491,-2.272678 -4.179491,-2.272676 z"
           id="path17-9-4"
           sodipodi:nodetypes="ccaacaascc"
           transform="translate(0.43965537,0.11927727)" /><path
           style="display:inline;fill:#bea503;fill-opacity:0.333333;stroke:none;stroke-width:0.232369;stroke-linecap:round;stroke-linejoin:round;stroke-miterlimit:40;stroke-dasharray:none;stroke-opacity:1;paint-order:markers fill stroke"
           d="m 48.688883,65.401302 4.231775,2.215191 c 0,0 5.446233,1.957019 8.254541,2.491083 2.197661,0.417936 4.367164,0.619009 6.659725,0.545535 1.570258,-0.05032 6.845229,-0.56323 6.845229,-0.56323 0,0 -6.046457,1.512357 -7.531737,1.5244 -2.391861,0.01939 -4.793548,0.13323 -7.168278,-0.217859 -3.546287,-0.524297 -8.126236,-1.386447 -10.44486,-2.801495 -1.288237,-0.786208 -0.420728,-2.972411 -0.846395,-3.193625 z"
           id="path17-9-2-6"
           sodipodi:nodetypes="ccascsasc" /><path
           style="fill:none;fill-opacity:1;stroke:#000000;stroke-width:0.622184;stroke-linecap:round;stroke-linejoin:round;stroke-miterlimit:40;stroke-dasharray:none;stroke-opacity:1;paint-order:markers fill stroke"
           d="m 53.618309,60.831732 c 0,0 -3.067243,0.08689 -4.54571,2.257403 -1.47847,2.170514 -0.928031,3.885898 -0.766539,4.910552 0.161491,1.024654 8.231014,4.518406 20.611068,3.267376 1.516319,-0.153231 7.569247,-1.288764 7.569247,-1.288764 0,0 -9.409359,-1.056746 -14.625727,-3.943195 -5.216368,-2.886449 -8.242339,-5.203375 -8.242339,-5.203375 z"
           id="path64-2"
           sodipodi:nodetypes="cssscscc"
           transform="translate(0.43965538,0.11927725)" /></g></g></g></svg>
