<?xml version="1.0" encoding="UTF-8" standalone="no"?>
<!-- Created with Inkscape (http://www.inkscape.org/) -->

<svg
   width="279.86942"
   height="359.46994"
   viewBox="0 0 74.04878 95.109749"
   version="1.1"
   id="svg1"
   inkscape:version="1.3.2 (091e20e, 2023-11-25, custom)"
   sodipodi:docname="bumble.svg"
   xml:space="preserve"
   inkscape:export-filename="assets\wings.svg"
   inkscape:export-xdpi="96"
   inkscape:export-ydpi="96"
   xmlns:inkscape="http://www.inkscape.org/namespaces/inkscape"
   xmlns:sodipodi="http://sodipodi.sourceforge.net/DTD/sodipodi-0.dtd"
   xmlns="http://www.w3.org/2000/svg"
   xmlns:svg="http://www.w3.org/2000/svg"><sodipodi:namedview
     id="namedview1"
     pagecolor="#ffffff"
     bordercolor="#000000"
     borderopacity="0.25"
     inkscape:showpageshadow="2"
     inkscape:pageopacity="0.0"
     inkscape:pagecheckerboard="true"
     inkscape:deskcolor="#d1d1d1"
     inkscape:document-units="mm"
     inkscape:zoom="1.9723485"
     inkscape:cx="132.58306"
     inkscape:cy="198.74784"
     inkscape:window-width="2245"
     inkscape:window-height="1122"
     inkscape:window-x="2474"
     inkscape:window-y="54"
     inkscape:window-maximized="0"
     inkscape:current-layer="g1" /><defs
     id="defs1"><inkscape:path-effect
       effect="spiro"
       id="path-effect20"
       is_visible="true"
       lpeversion="1" /></defs><g
     id="g1"
     inkscape:label="Bumble"
     transform="translate(-0.13414634,-0.13414634)"><g
       id="layer3"
       inkscape:label="Torso"
       transform="matrix(0.83828142,0,0,1.0266602,11.622839,5.9360251)"
       style="display:inline;stroke-width:1.07793"><g
         id="g21"
         transform="translate(-4.2352582,-2.5296401)"
         style="stroke-width:1.07793"><path
           id="rect21"
           style="stroke-width:0.204652;stroke-linecap:round;stroke-linejoin:round;stroke-miterlimit:40;paint-order:markers fill stroke"
           d="m 25.82317,24.615852 14.621952,0.737805 1.408537,2.632622 1.029969,2.297256 -0.02598,0.936026 -2.233054,3.642068 -14.80142,1.089589 z"
           sodipodi:nodetypes="cccccccc"
           transform="matrix(1.0886871,0,0,1.0193144,-2.6404091,0.79736605)" /><path
           style="fill:#000000;fill-opacity:1;stroke:#000000;stroke-width:0.814815;stroke-linecap:round;stroke-linejoin:round;stroke-miterlimit:40;stroke-dasharray:none;stroke-opacity:1;paint-order:markers fill stroke"
           d="m 92.741859,172.53297 c -5.514836,-11.1096 -9.475314,-22.42901 -12.067188,-34.48915 -2.211111,-10.28842 -2.300709,-16.14057 -0.337339,-22.03349 2.120475,-6.36447 7.288116,-12.43726 13.145695,-15.44826 l 3.138493,-1.613293 0.958006,1.254783 c 2.505364,3.2815 7.928804,8.22663 11.177494,10.19173 6.97491,4.21904 13.57025,7.08414 19.76884,8.58784 7.26126,1.76149 21.13232,3.6215 29.75633,3.99012 2.66194,0.11378 5.5024,0.28677 6.31213,0.38442 l 1.47225,0.17756 c 0,0 -0.57714,3.03822 -1.12642,4.50313 -0.71937,1.91853 -1.57785,3.83044 -2.82127,5.56104 -1.20531,1.67755 -1.95457,2.57441 -4.42847,4.57928 -3.13354,2.53945 -2.59019,0.74756 -7.22321,7.1874 l -4.69927,6.53194 -0.24511,1.63451 c -0.33215,2.2149 2.98971,8.55669 3.7186,10.88141 0.6463,2.06129 7.02507,11.76973 6.73476,11.87513 -0.22166,0.0805 -14.08259,-0.85298 -27.21423,-0.45069 -17.34432,0.53135 -29.910779,2.26926 -32.85091,2.30192 -0.62258,0.007 -1.091519,-1.4219 -3.169181,-5.60733 z"
           id="path21"
           sodipodi:nodetypes="sssscssssscaasscsssscs"
           transform="scale(0.26458333)" /><path
           style="fill:none;fill-opacity:1;stroke:#000000;stroke-width:0.215586;stroke-linecap:round;stroke-linejoin:round;stroke-miterlimit:40;stroke-dasharray:none;stroke-opacity:1;paint-order:markers fill stroke"
           d="m 25.756716,25.978977 c -1.312709,0.434702 -2.497355,1.248794 -3.37373,2.318438 -0.876375,1.069644 -1.441556,2.391272 -1.609569,3.76384 -0.159164,1.300277 0.03159,2.617499 0.286707,3.9024 0.779831,3.927692 2.168979,7.733797 4.102513,11.240412 l 2.584821,-0.403138"
           id="path19"
           sodipodi:nodetypes="csscc"
           inkscape:original-d="m 25.756716,25.978977 c -2.055208,1.644167 -5.299485,3.726694 -4.983299,6.082278 0.375949,2.800813 -0.181163,1.89891 0.286707,3.9024 0.550921,2.359127 4.102513,11.240412 4.102513,11.240412 l 2.584821,-0.403138"
           inkscape:path-effect="#path-effect20" /></g></g></g></svg>
