<?xml version="1.0" encoding="UTF-8" standalone="no"?>
<!-- Created with Inkscape (http://www.inkscape.org/) -->

<svg
   width="268.7514"
   height="249.28851"
   viewBox="0 0 71.107142 65.957579"
   version="1.1"
   id="svg1"
   xml:space="preserve"
   inkscape:version="1.3.2 (091e20e, 2023-11-25, custom)"
   sodipodi:docname="ninja_boy.svg"
   inkscape:export-filename="standing_still_looking_up.png"
   inkscape:export-xdpi="96"
   inkscape:export-ydpi="96"
   xmlns:inkscape="http://www.inkscape.org/namespaces/inkscape"
   xmlns:sodipodi="http://sodipodi.sourceforge.net/DTD/sodipodi-0.dtd"
   xmlns="http://www.w3.org/2000/svg"
   xmlns:svg="http://www.w3.org/2000/svg"><sodipodi:namedview
     id="namedview1"
     pagecolor="#ffffff"
     bordercolor="#000000"
     borderopacity="0.25"
     inkscape:showpageshadow="2"
     inkscape:pageopacity="0.0"
     inkscape:pagecheckerboard="0"
     inkscape:deskcolor="#d1d1d1"
     inkscape:document-units="mm"
     inkscape:zoom="3.944697"
     inkscape:cx="83.529863"
     inkscape:cy="184.93182"
     inkscape:window-width="2400"
     inkscape:window-height="1321"
     inkscape:window-x="2391"
     inkscape:window-y="-9"
     inkscape:window-maximized="1"
     inkscape:current-layer="svg1" /><defs
     id="defs1" /><g
     id="layer4"
     inkscape:label="sword"
     transform="matrix(0.83236245,-0.91715209,0.92404803,0.88578841,-67.969873,73.834198)"
     style="stroke-width:0.794353"><g
       id="g22"
       inkscape:label="blade"
       style="stroke-width:0.794353"
       transform="translate(0.00291155,0.07742756)"><path
         style="fill:#d9eaf4;fill-opacity:1;stroke:none;stroke-width:0.420346;stroke-linecap:round;stroke-linejoin:round;stroke-miterlimit:40;stroke-dasharray:none;stroke-opacity:1;paint-order:markers fill stroke"
         d="m 72.35739,41.525454 c 0,0 14.433644,0.501479 21.568791,-0.13653 2.36468,-0.211444 4.740928,-0.532772 6.988519,-1.218823 1.36786,-0.417521 3.89024,-1.743904 3.89024,-1.743904 0,0 -0.40979,2.613697 -1.25983,3.539577 -1.27569,1.389504 -3.20361,2.047873 -5.212914,2.425391 -1.520338,0.28565 -2.917866,0.543157 -5.258502,0.653965 -2.897029,0.137147 -20.709743,-0.0762 -20.709743,-0.0762 z"
         id="path19"
         sodipodi:nodetypes="caacasscc"
         inkscape:label="fill" /><path
         style="fill:#f5fafc;fill-opacity:0.635928;stroke:none;stroke-width:0.420346;stroke-linecap:round;stroke-linejoin:round;stroke-miterlimit:40;stroke-dasharray:none;stroke-opacity:1;paint-order:markers fill stroke"
         d="m 72.959632,43.507318 c 0,0 13.220379,0.399215 19.786584,0 2.280491,-0.13865 4.575094,-0.273195 6.784212,-0.830276 1.221842,-0.308117 3.426892,-1.762409 3.426892,-1.762409 l 0.53684,-1.625372 c 0,0 -3.34902,1.189622 -5.097564,1.542682 -1.864728,0.37652 -3.793227,0.457417 -5.701218,0.60366 -2.808382,0.215257 -5.627079,0.364197 -8.45122,0.402439 -2.188266,0.02963 -6.573171,-0.134146 -6.573171,-0.134146 l -3.689024,-0.134146 -1.475611,0.06707 -0.335621,1.558301 z"
         id="path22"
         sodipodi:nodetypes="casccaaaccccc"
         inkscape:label="shine" /><path
         style="fill:none;fill-opacity:1;stroke:#000000;stroke-width:0.420346;stroke-linecap:round;stroke-linejoin:round;stroke-miterlimit:40;stroke-dasharray:none;stroke-opacity:1;paint-order:markers fill stroke"
         d="m 72.19917,41.351634 c 0,0 14.433643,0.501478 21.568791,-0.13653 2.364679,-0.211445 4.740926,-0.532773 6.988519,-1.218823 1.36786,-0.417522 3.89025,-1.743904 3.89025,-1.743904 0,0 -0.42202,2.590501 -1.22729,3.55517 -1.19171,1.427608 -2.90201,2.420498 -4.911313,2.798016 -1.520338,0.28565 -3.07184,0.697472 -5.412476,0.80828 -2.897029,0.137147 -20.709743,-0.0762 -20.709743,-0.0762 z"
         id="path19-2"
         sodipodi:nodetypes="caacasscc"
         inkscape:label="shell" /></g><g
       id="g16"
       inkscape:label="handle"
       style="stroke-width:0.794353"
       transform="translate(0.03836473,0.17044866)"><rect
         style="fill:#817a77;fill-opacity:1;stroke:none;stroke-width:0.420346;stroke-linecap:round;stroke-linejoin:round;stroke-miterlimit:40;stroke-dasharray:none;paint-order:markers fill stroke"
         id="rect1"
         width="11.788453"
         height="2.6220951"
         x="57.833496"
         y="41.813881"
         inkscape:label="fill 1"
         ry="0" /><rect
         style="fill:#5b5654;fill-opacity:1;stroke:none;stroke-width:0.420348;stroke-linecap:round;stroke-linejoin:round;stroke-miterlimit:40;stroke-dasharray:none;paint-order:markers fill stroke"
         id="rect1-16"
         width="10.67946"
         height="1.8309442"
         x="58.758472"
         y="42.932129"
         inkscape:label="fill 2"
         transform="matrix(0.99999767,-0.00215966,-0.00231628,0.99999732,0,0)" /><path
         style="fill:none;fill-opacity:1;stroke:#bab7b6;stroke-width:0.420346;stroke-linecap:round;stroke-linejoin:round;stroke-miterlimit:40;stroke-dasharray:none;stroke-opacity:0.413174;paint-order:markers fill stroke"
         d="m 58.09082,43.668278 11.396982,0.02989 0.10061,-0.134147"
         id="path15"
         sodipodi:nodetypes="ccc" /><rect
         style="fill:none;fill-opacity:1;stroke:#000000;stroke-width:0.420346;stroke-linecap:round;stroke-linejoin:round;stroke-miterlimit:40;stroke-dasharray:none;paint-order:markers fill stroke"
         id="rect1-1"
         width="11.58541"
         height="3.1710794"
         x="58.035629"
         y="41.645252"
         inkscape:label="shell" /></g><g
       id="g17"
       inkscape:label="guard"
       style="stroke-width:0.794353"><rect
         style="fill:#9e7a1c;fill-opacity:1;stroke:none;stroke-width:0.420346;stroke-linecap:round;stroke-linejoin:round;stroke-miterlimit:40;stroke-dasharray:none;stroke-opacity:1;paint-order:markers fill stroke"
         id="rect15"
         width="2.2804878"
         height="7.5121946"
         x="69.756096"
         y="39.707317"
         inkscape:label="fill 1" /><rect
         style="fill:#daa92a;fill-opacity:1;stroke:none;stroke-width:0.420346;stroke-linecap:round;stroke-linejoin:round;stroke-miterlimit:40;stroke-dasharray:none;stroke-opacity:1;paint-order:markers fill stroke"
         id="rect15-0"
         width="2.2804878"
         height="6.5312495"
         x="69.803406"
         y="39.593647"
         inkscape:label="fill 2" /><path
         style="fill:#937119;fill-opacity:1;stroke:#ffffff;stroke-width:0.840691;stroke-linecap:round;stroke-linejoin:round;stroke-miterlimit:40;stroke-dasharray:none;stroke-opacity:0.403593;paint-order:markers fill stroke"
         d="m 70.427444,41.6636 1.036971,0.02863"
         id="path16" /><rect
         style="fill:none;fill-opacity:1;stroke:#000000;stroke-width:0.420346;stroke-linecap:round;stroke-linejoin:round;stroke-miterlimit:40;stroke-dasharray:none;stroke-opacity:1;paint-order:markers fill stroke"
         id="rect15-8"
         width="2.2804878"
         height="7.5121946"
         x="69.804962"
         y="39.555069"
         inkscape:label="shell" /></g></g></svg>
