<?xml version="1.0" encoding="UTF-8" standalone="no"?>
<!-- Created with Inkscape (http://www.inkscape.org/) -->

<svg
   width="80"
   height="80"
   viewBox="0 0 21.166666 21.166667"
   version="1.1"
   id="svg1"
   xml:space="preserve"
   inkscape:export-filename="..\..\items\heart\heart.png"
   inkscape:export-xdpi="96"
   inkscape:export-ydpi="96"
   inkscape:version="1.3.2 (091e20e, 2023-11-25, custom)"
   sodipodi:docname="heart.svg"
   xmlns:inkscape="http://www.inkscape.org/namespaces/inkscape"
   xmlns:sodipodi="http://sodipodi.sourceforge.net/DTD/sodipodi-0.dtd"
   xmlns="http://www.w3.org/2000/svg"
   xmlns:svg="http://www.w3.org/2000/svg"><sodipodi:namedview
     id="namedview1"
     pagecolor="#ffffff"
     bordercolor="#000000"
     borderopacity="0.25"
     inkscape:showpageshadow="2"
     inkscape:pageopacity="0.0"
     inkscape:pagecheckerboard="0"
     inkscape:deskcolor="#d1d1d1"
     inkscape:document-units="px"
     inkscape:zoom="4"
     inkscape:cx="-11.875"
     inkscape:cy="11.625"
     inkscape:window-width="2400"
     inkscape:window-height="1321"
     inkscape:window-x="2391"
     inkscape:window-y="-9"
     inkscape:window-maximized="1"
     inkscape:current-layer="layer1" /><defs
     id="defs1"><inkscape:path-effect
       effect="powerstroke"
       id="path-effect5"
       is_visible="true"
       lpeversion="1.3"
       scale_width="2.489019"
       interpolator_type="CentripetalCatmullRom"
       interpolator_beta="0.2"
       start_linecap_type="zerowidth"
       end_linecap_type="zerowidth"
       offset_points="0.42318626,0.064651751 | 1.1547078,0.098510421 | 1.7698554,0.061983991"
       linejoin_type="round"
       miter_limit="4"
       not_jump="false"
       sort_points="true"
       message="&lt;b&gt;Ctrl + click&lt;/b&gt; on existing node and move it" /><inkscape:path-effect
       effect="spiro"
       id="path-effect4"
       is_visible="true"
       lpeversion="1" /><inkscape:path-effect
       effect="spiro"
       id="path-effect2"
       is_visible="true"
       lpeversion="1" /><inkscape:path-effect
       effect="spiro"
       id="path-effect2-8"
       is_visible="true"
       lpeversion="1" /></defs><g
     inkscape:label="Layer 1"
     inkscape:groupmode="layer"
     id="layer1"
     transform="matrix(0.98356464,0,0,0.97885856,0.013837,0.4331145)"
     style="stroke-width:1.61790235;stroke-dasharray:none"><path
       style="stroke-width:1.0786;stroke-dasharray:none;display:inline;fill:#ff0e01;fill-opacity:1;stroke:none;stroke-linejoin:round;stroke-miterlimit:40;stroke-opacity:1;paint-order:markers fill stroke"
       d="M 11.174178,18.32634 C 10.770308,17.318963 9.9797501,16.238414 8.9768008,15.322919 8.3320881,14.734425 7.7939575,14.314337 6.4244298,13.33043 5.0769124,12.362336 4.5705688,11.965527 3.9305101,11.376009 3.5962982,11.068187 3.1713156,10.604798 2.9200389,10.274218 2.188929,9.3123705 1.7239703,8.1917894 1.5878575,7.0635735 1.5534607,6.7784641 1.553289,6.0842585 1.5875459,5.8037442 1.7023461,4.8636998 2.0387319,3.9847979 2.554262,3.2779305 2.7489799,3.0109431 3.1593206,2.575169 3.4107447,2.3683616 4.0642859,1.8307956 4.8626115,1.4615083 5.7059329,1.30666 6.0878637,1.236531 6.7958447,1.231418 7.16555,1.296118 c 1.0343013,0.1810088 1.8469206,0.60752 2.480144,1.3017278 0.477895,0.5239198 1.226603,1.8712396 1.226603,1.8712396 l 0.05125,0.039775 0.05225,0.173054 c 0,0 0.512011,-0.00227 0.626673,-0.019706 l 0.04543,-0.014329 -0.0232,0.018505 c 0.0016,-0.2224933 0.357791,-0.7392344 0.53607,-1.1164151 0.622395,-1.3167767 1.910438,-2.1459035 3.426239,-2.205506 0.566462,-0.022274 0.987132,0.037951 1.518995,0.2174687 0.841006,0.2838607 1.586413,0.8050033 2.171472,1.5181609 0.645197,0.7864619 1.063262,1.8359285 1.172163,2.9424711 0.03552,0.3609315 0.01687,1.033394 -0.03877,1.3977031 -0.09275,0.6073373 -0.336976,1.3825426 -0.607709,1.9289663 -0.537934,1.0857208 -1.412234,2.0707488 -2.798566,3.1529908 -0.167361,0.130651 -0.645013,0.489409 -1.061447,0.79724 -0.416435,0.307831 -0.91027,0.676568 -1.097409,0.819415 -1.722379,1.314722 -2.71599,2.415536 -3.351282,3.712859 -0.09658,0.197225 -0.198112,0.414234 -0.22563,0.482242 l -0.05004,0.123652 z"
       id="path3"
       sodipodi:nodetypes="cssssssssscscccccccsssscsssssccc" /><g
       id="g2"
       transform="matrix(2.8177296,0,0,2.6685683,-18.378937,-12.405267)"
       style="display:inline;stroke-width:0.590015"><path
         style="display:inline;fill:none;fill-opacity:1;stroke:#000000;stroke-width:0.393343;stroke-linejoin:round;stroke-miterlimit:40;stroke-dasharray:none;stroke-opacity:1;paint-order:markers fill stroke"
         d="M 10.429276,6.3788453 C 10.387315,6.0217215 10.217991,5.6808859 9.958746,5.4317072 9.5953003,5.0823741 9.0626606,4.9256522 8.5638572,4.9986013 8.0650538,5.0715503 7.6073789,5.3656966 7.3133079,5.7751458 7.0192369,6.184595 6.8869093,6.7021319 6.9230752,7.2049424 c 0.036166,0.5028105 0.2363988,0.9888547 0.5448254,1.387602 0.3712424,0.4799582 0.8836821,0.8267675 1.3811937,1.1741333 0.4975116,0.3473663 0.9998654,0.7146183 1.3364727,1.2194713 0.272374,0.408514 0.423558,0.896769 0.429697,1.387721"
         id="path2"
         inkscape:path-effect="#path-effect2"
         inkscape:original-d="M 10.429276,6.3788453 C 10.306254,6.041718 10.047967,5.7688422 9.958746,5.4317072 9.8585954,5.053274 8.2955027,7.5137369 7.4679006,8.5925444 6.6402987,9.6713519 9.9042079,10.520375 10.185567,10.986149 c 0.143646,0.237798 0.405022,0.930227 0.429697,1.387721"
         transform="matrix(0.99951948,0.03114473,-0.0308474,0.99951952,0.26213304,-0.26650905)"
         sodipodi:nodetypes="csssc" /><path
         style="fill:none;fill-opacity:1;stroke:#000000;stroke-width:0.4037;stroke-linejoin:round;stroke-miterlimit:40;stroke-dasharray:none;stroke-opacity:1;paint-order:markers fill stroke"
         d="M 10.498261,6.388749 C 10.442843,6.0081373 10.245361,5.6498942 9.9531183,5.3998329 9.5757916,5.0769683 9.0487022,4.9443352 8.5593215,5.0287356 8.0699407,5.113136 7.6244383,5.4072384 7.3360735,5.8115436 7.0477086,6.2158488 6.9150009,6.7240027 6.9461709,7.219629 c 0.03117,0.4956262 0.2223501,0.9766972 0.5217297,1.3729154 0.3657733,0.4840879 0.8769036,0.8337638 1.3745263,1.1808991 0.4976226,0.3471355 1.0016857,0.7111675 1.3431401,1.2127055 0.281381,0.413301 0.439243,0.909577 0.448348,1.409487"
         id="path2-2"
         inkscape:path-effect="#path-effect2-8"
         inkscape:original-d="M 10.498261,6.388749 C 10.41868,6.0894612 10.075182,5.7711769 9.9531183,5.3998329 9.8311101,5.0286585 8.2955027,7.5137369 7.4679006,8.5925444 6.6402987,9.6713519 9.9779131,10.593622 10.185567,10.986149 c 0.201905,0.38166 0.969455,0.85503 0.448348,1.409487"
         transform="matrix(-0.94916044,0.01675258,0.02116558,0.99981323,20.346543,-0.13768717)"
         sodipodi:nodetypes="csssc" /></g><path
       style="fill:#fefefe;fill-opacity:1;fill-rule:nonzero;stroke:none;stroke-width:0.235989;stroke-linejoin:round;stroke-miterlimit:40;stroke-dasharray:none;stroke-opacity:1;paint-order:markers fill stroke"
       d="m 16.59389,4.1424632 c 0.09746,0.023746 0.338206,0.1389258 0.511132,0.2462671 0.02614,0.016224 0.05279,0.033455 0.07986,0.051907 0.162583,0.110816 0.305066,0.2420738 0.425313,0.4031182 0.03631,0.048627 0.06869,0.097376 0.09835,0.1456013 0.06867,0.1116478 0.140504,0.2384026 0.188913,0.3569039 0.03688,0.090291 0.06954,0.1967709 0.0812,0.3189668 0.0078,0.081255 0.0091,0.1785747 -0.005,0.285842 0.0085,0.2012731 -0.03438,0.3715983 -0.07129,0.4838601 0.08412,-0.079659 0.207968,-0.2191781 0.312565,-0.4266553 0.04049,-0.1227395 0.06159,-0.2383056 0.07221,-0.3382088 0.01578,-0.1484049 0.01597,-0.2894155 0.0033,-0.4141834 -0.01751,-0.1725955 -0.06277,-0.3494092 -0.160668,-0.5175325 -0.03986,-0.068453 -0.08792,-0.1363176 -0.144271,-0.2011469 -0.184001,-0.2117 -0.4217,-0.3518619 -0.652953,-0.4211011 -0.03931,-0.011771 -0.0776,-0.02125 -0.114499,-0.02869 -0.27663,-0.055775 -0.507878,0.018767 -0.624212,0.055052 z"
       id="path4"
       inkscape:path-effect="#path-effect4;#path-effect5"
       inkscape:original-d="m 16.59389,4.1424632 c 0.485774,0.6667596 1.383319,1.0721474 1.500436,1.8372084 0.02513,0.1641695 -0.147197,0.3990698 -0.191927,0.4552577"
       sodipodi:nodetypes="cac"
       transform="matrix(-0.68411107,-2.1292263,2.2464159,-0.64223264,5.3927381,45.218623)" /></g></svg>
